<svg height="478pt" viewBox="0 -53 478.00005 478" width="478pt" xmlns="http://www.w3.org/2000/svg"><path d="m478 30c.011719-7.960938-3.148438-15.597656-8.773438-21.226562-5.628906-5.625-13.265624-8.7851568-21.226562-8.773438h-418c-7.960938-.0117188-15.597656 3.148438-21.226562 8.773438-5.625 5.628906-8.7851568 13.265624-8.773438 21.226562v139c-.0117188 7.960938 3.148438 15.597656 8.773438 21.226562 5.628906 5.625 13.265624 8.785157 21.226562 8.773438h418c7.960938.011719 15.597656-3.148438 21.226562-8.773438 5.625-5.628906 8.785157-13.265624 8.773438-21.226562zm-448.101562-10h418.300781c2.621093-.035156 5.140625.984375 7.003906 2.828125 1.859375 1.839844 2.902344 4.351563 2.898437 6.972656v108.199219h-438.101562v-108.199219c-.023438-2.625 1.015625-5.144531 2.878906-6.992187 1.867188-1.847656 4.398438-2.859375 7.019532-2.808594zm418.203124 159h-418.203124c-5.5 0-9.898438-5-9.898438-10.5v-10.5h438v10.5c0 5.5-4.300781 10.5-9.898438 10.5zm0 0"/><path d="m69 108c5.515625-.015625 9.984375-4.484375 10-10v-38c0-5.523438-4.476562-10-10-10s-10 4.476562-10 10v38c.015625 5.515625 4.484375 9.984375 10 10zm0 0"/><path d="m109 108c5.515625-.015625 9.984375-4.484375 10-10v-38c0-5.523438-4.476562-10-10-10s-10 4.476562-10 10v38c.015625 5.515625 4.484375 9.984375 10 10zm0 0"/><path d="m149 108c5.515625-.015625 9.984375-4.484375 10-10v-38c0-5.523438-4.476562-10-10-10s-10 4.476562-10 10v38c.015625 5.515625 4.484375 9.984375 10 10zm0 0"/><path d="m126.5 237.199219c0-5.523438-4.476562-10-10-10s-10 4.476562-10 10c0 4.699219-1.300781 6.601562-3.601562 9.902343-3 4.398438-7.199219 10.398438-7.199219 21.296876 0 10.902343 4.101562 16.902343 7.199219 21.300781 2.300781 3.402343 3.601562 5.199219 3.601562 9.902343 0 4.699219-1.300781 6.597657-3.601562 9.898438-3 4.398438-7.199219 10.398438-7.199219 21.300781 0 10.898438 4.101562 16.898438 7.199219 21.300781 2.300781 3.398438 3.601562 5.199219 3.601562 9.898438 0 5.523438 4.476562 10 10 10s10-4.476562 10-10c0-10.898438-4.101562-16.898438-7.199219-21.300781-2.300781-3.398438-3.601562-5.199219-3.601562-9.898438s1.300781-6.601562 3.601562-9.902343c3-4.398438 7.199219-10.398438 7.199219-21.296876 0-10.902343-4.101562-16.902343-7.199219-21.300781-2.300781-3.402343-3.601562-5.199219-3.601562-9.902343 0-4.699219 1.300781-6.597657 3.601562-9.898438 3-4.398438 7.199219-10.398438 7.199219-21.300781zm0 0"/><path d="m62.5 237.199219c0-5.523438-4.476562-10-10-10s-10 4.476562-10 10c0 4.699219-1.300781 6.601562-3.601562 9.902343-3 4.398438-7.199219 10.398438-7.199219 21.296876 0 10.902343 4.101562 16.902343 7.199219 21.300781 2.300781 3.402343 3.601562 5.199219 3.601562 9.902343 0 4.699219-1.300781 6.597657-3.601562 9.898438-3 4.398438-7.199219 10.398438-7.199219 21.300781 0 10.898438 4.101562 16.898438 7.199219 21.300781 2.300781 3.398438 3.601562 5.199219 3.601562 9.898438 0 5.523438 4.476562 10 10 10s10-4.476562 10-10c0-10.898438-4.101562-16.898438-7.199219-21.300781-2.300781-3.398438-3.601562-5.199219-3.601562-9.898438s1.300781-6.601562 3.601562-9.902343c3-4.398438 7.199219-10.398438 7.199219-21.296876 0-10.902343-4.101562-16.902343-7.199219-21.300781-2.300781-3.402343-3.601562-5.199219-3.601562-9.902343 0-4.699219 1.300781-6.597657 3.601562-9.898438 3.097657-4.398438 7.199219-10.398438 7.199219-21.300781zm0 0"/><path d="m190.398438 237.199219c0-5.523438-4.476563-10-10-10-5.519532 0-10 4.476562-10 10 0 4.699219-1.296876 6.601562-3.597657 9.902343-3 4.398438-7.199219 10.398438-7.199219 21.296876 0 10.902343 4.097657 16.902343 7.199219 21.300781 2.300781 3.402343 3.597657 5.199219 3.597657 9.902343 0 4.699219-1.296876 6.597657-3.597657 9.898438-3 4.398438-7.199219 10.398438-7.199219 21.300781 0 10.898438 4.097657 16.898438 7.199219 21.300781 2.300781 3.398438 3.597657 5.199219 3.597657 9.898438 0 5.523438 4.480468 10 10 10 5.523437 0 10-4.476562 10-10 0-10.898438-4.097657-16.898438-7.199219-21.300781-2.300781-3.398438-3.597657-5.199219-3.597657-9.898438s1.296876-6.601562 3.597657-9.902343c3-4.398438 7.199219-10.398438 7.199219-21.296876 0-10.902343-4.097657-16.902343-7.199219-21.300781-2.300781-3.402343-3.597657-5.199219-3.597657-9.902343 0-4.699219 1.296876-6.597657 3.597657-9.898438 3.101562-4.398438 7.199219-10.398438 7.199219-21.300781zm0 0"/><path d="m254.398438 237.199219c0-5.523438-4.476563-10-10-10-5.519532 0-10 4.476562-10 10 0 4.699219-1.296876 6.601562-3.597657 9.902343-3 4.398438-7.199219 10.398438-7.199219 21.296876 0 10.902343 4.097657 16.902343 7.199219 21.300781 2.300781 3.402343 3.597657 5.199219 3.597657 9.902343 0 4.699219-1.296876 6.597657-3.597657 9.898438-3 4.398438-7.199219 10.398438-7.199219 21.300781 0 10.898438 4.097657 16.898438 7.199219 21.300781 2.300781 3.398438 3.597657 5.199219 3.597657 9.898438 0 5.523438 4.480468 10 10 10 5.523437 0 10-4.476562 10-10 0-10.898438-4.097657-16.898438-7.199219-21.300781-2.300781-3.398438-3.597657-5.199219-3.597657-9.898438s1.296876-6.601562 3.597657-9.902343c3-4.398438 7.199219-10.398438 7.199219-21.296876 0-10.902343-4.097657-16.902343-7.199219-21.300781-2.300781-3.402343-3.597657-5.199219-3.597657-9.902343 0-4.699219 1.296876-6.597657 3.597657-9.898438 3.101562-4.398438 7.199219-10.398438 7.199219-21.300781zm0 0"/><path d="m318.398438 237.199219c0-5.523438-4.476563-10-10-10-5.519532 0-10 4.476562-10 10 0 4.699219-1.296876 6.601562-3.597657 9.902343-3 4.398438-7.199219 10.398438-7.199219 21.296876 0 10.902343 4.097657 16.902343 7.199219 21.300781 2.300781 3.402343 3.597657 5.199219 3.597657 9.902343 0 4.699219-1.296876 6.597657-3.597657 9.898438-3 4.398438-7.199219 10.398438-7.199219 21.300781 0 10.898438 4.097657 16.898438 7.199219 21.300781 2.300781 3.398438 3.597657 5.199219 3.597657 9.898438 0 5.523438 4.480468 10 10 10 5.523437 0 10-4.476562 10-10 0-10.898438-4.097657-16.898438-7.199219-21.300781-2.300781-3.398438-3.597657-5.199219-3.597657-9.898438s1.296876-6.601562 3.597657-9.902343c3-4.398438 7.199219-10.398438 7.199219-21.296876 0-10.902343-4.097657-16.902343-7.199219-21.300781-2.300781-3.402343-3.597657-5.199219-3.597657-9.902343 0-4.699219 1.296876-6.597657 3.597657-9.898438 3-4.398438 7.199219-10.398438 7.199219-21.300781zm0 0"/><path d="m382.300781 237.199219c0-5.523438-4.476562-10-10-10-5.523437 0-10 4.476562-10 10 0 4.699219-1.300781 6.601562-3.601562 9.902343-3 4.398438-7.199219 10.398438-7.199219 21.296876 0 10.902343 4.101562 16.902343 7.199219 21.300781 2.300781 3.402343 3.601562 5.199219 3.601562 9.902343 0 4.699219-1.300781 6.597657-3.601562 9.898438-3 4.398438-7.199219 10.398438-7.199219 21.300781 0 10.898438 4.101562 16.898438 7.199219 21.300781 2.300781 3.398438 3.601562 5.199219 3.601562 9.898438 0 5.523438 4.476563 10 10 10 5.523438 0 10-4.476562 10-10 0-10.898438-4.101562-16.898438-7.199219-21.300781-2.300781-3.398438-3.601562-5.199219-3.601562-9.898438s1.300781-6.601562 3.601562-9.902343c3-4.398438 7.199219-10.398438 7.199219-21.296876 0-10.902343-4.101562-16.902343-7.199219-21.300781-2.300781-3.402343-3.601562-5.199219-3.601562-9.902343 0-4.699219 1.300781-6.597657 3.601562-9.898438 3.097657-4.398438 7.199219-10.398438 7.199219-21.300781zm0 0"/><path d="m446.300781 237.199219c0-5.523438-4.476562-10-10-10-5.523437 0-10 4.476562-10 10 0 4.699219-1.300781 6.601562-3.601562 9.902343-3 4.398438-7.199219 10.398438-7.199219 21.296876 0 10.902343 4.101562 16.902343 7.199219 21.300781 2.300781 3.402343 3.601562 5.199219 3.601562 9.902343 0 4.699219-1.300781 6.597657-3.601562 9.898438-3 4.398438-7.199219 10.398438-7.199219 21.300781 0 10.898438 4.101562 16.898438 7.199219 21.300781 2.300781 3.398438 3.601562 5.199219 3.601562 9.898438 0 5.523438 4.476563 10 10 10 5.523438 0 10-4.476562 10-10 0-10.898438-4.101562-16.898438-7.199219-21.300781-2.300781-3.398438-3.601562-5.199219-3.601562-9.898438s1.300781-6.601562 3.601562-9.902343c3-4.398438 7.199219-10.398438 7.199219-21.296876 0-10.902343-4.101562-16.902343-7.199219-21.300781-2.300781-3.402343-3.601562-5.199219-3.601562-9.902343 0-4.699219 1.300781-6.597657 3.601562-9.898438 3-4.398438 7.199219-10.398438 7.199219-21.300781zm0 0"/></svg>