<svg height="444pt" viewBox="-13 0 444 444.00005" width="444pt" xmlns="http://www.w3.org/2000/svg"><path d="m418 30c.011719-7.960938-3.148438-15.597656-8.773438-21.226562-5.628906-5.625-13.265624-8.7851568-21.226562-8.773438h-358c-7.960938-.0117188-15.597656 3.148438-21.226562 8.773438-5.625 5.628906-8.7851568 13.265624-8.773438 21.226562v384c-.0117188 7.960938 3.148438 15.597656 8.773438 21.226562 5.628906 5.625 13.265624 8.785157 21.226562 8.773438h358c7.960938.011719 15.597656-3.148438 21.226562-8.773438 5.625-5.628906 8.785157-13.265624 8.773438-21.226562zm-388.101562-10h358.300781c5.515625.070312 9.9375 4.582031 9.902343 10.101562v340.898438h-378.101562v-340.898438c-.035156-2.65625.988281-5.214843 2.847656-7.113281 1.859375-1.894531 4.398438-2.972656 7.050782-2.988281zm358.203124 404h-358.203124c-5.515626-.070312-9.9375-4.582031-9.898438-10.101562v-22.898438h378v22.898438c.035156 2.65625-.988281 5.214843-2.847656 7.113281-1.859375 1.894531-4.398438 2.972656-7.050782 2.988281zm0 0"/><path d="m117.800781 148h182.300781c5.515626-.015625 9.984376-4.484375 10-10 0-55.863281-45.289062-101.148438-101.152343-101.148438s-101.148438 45.285157-101.148438 101.148438c.015625 5.515625 4.484375 9.984375 10 10zm91.199219-91.199219c40.960938.054688 75.492188 30.558594 80.601562 71.199219h-70.601562v-33c0-5.523438-4.476562-10-10-10s-10 4.476562-10 10v33h-70.601562c5.109374-40.640625 39.640624-71.144531 80.601562-71.199219zm0 0"/></svg>