<svg height="458pt" viewBox="0 -7 458.00159 458" width="458pt" xmlns="http://www.w3.org/2000/svg"><path d="m448.101562 202.902344h-397.101562v-138.800782c.085938-24.359374 19.839844-44.070312 44.199219-44.101562 20.800781 0 38.402343 14.902344 43 33.902344h-16.796875c-5.523438 0-10 4.476562-10 10 0 5.519531 4.476562 10 10 10h56c5.519531 0 10-4.480469 10-10 0-5.523438-4.480469-10-10-10h-18.800782c-4.902343-30-31.5-53.902344-63.300781-53.902344-35.441406-.015625-64.203125 28.660156-64.300781 64.101562v138.800782h-21.097656c-2.625-.050782-5.15625.960937-7.023438 2.808594-1.863281 1.84375-2.9023435 4.367187-2.878906 6.988281v138.703125c.0195312 18.496094 7.402344 36.222656 20.515625 49.265625 13.117187 13.039062 30.886719 20.320312 49.386719 20.234375h8.097656v13c0 5.519531 4.476562 10 10 10s10-4.480469 10-10v-13h260v13c0 5.519531 4.476562 10 10 10s10-4.480469 10-10v-13h10.101562c18.496094.085937 36.265626-7.195313 49.382813-20.234375 13.117187-13.042969 20.5-30.769531 20.515625-49.265625v-138.703125c.042969-2.628907-.992188-5.160157-2.859375-7.007813-1.871094-1.851562-4.410156-2.859375-7.039063-2.789062zm-10.101562 20v30h-418v-30zm-49.898438 178h-318.199218c-13.199219.101562-25.890625-5.066406-35.261719-14.359375-9.367187-9.292969-14.636719-21.945313-14.640625-35.140625v-78.5h418v78.5c0 13.195312-5.273438 25.847656-14.640625 35.140625-9.371094 9.292969-22.0625 14.460937-35.257813 14.359375zm0 0"/></svg>