<svg height="456pt" viewBox="-54 0 456 456.1" width="456pt" xmlns="http://www.w3.org/2000/svg"><path d="m306.351562 86h-22.203124v-23.699219c0-11-8.597657-20.300781-19.597657-20.300781h-10.699219l-14.601562-30.601562c-3.355469-6.949219-10.382812-11.3750005-18.101562-11.398438h-113.398438c-7.71875.0234375-14.742188 4.449219-18.101562 11.398438l-14.5 30.601562h-10.699219c-11.148438.148438-20.148438 9.152344-20.300781 20.300781v34.097657c0 .402343.203124.703124.203124 1.101562h.097657l24.402343 220.898438-66.402343 81-.097657.101562c-.191406.214844-.359374.449219-.5.699219-.101562.101562-.101562.199219-.203124.300781-.097657.199219-.199219.300781-.296876.5-.101562.101562-.101562.300781-.203124.398438-.097657.203124-.199219.300781-.199219.5-.097657.203124-.097657.300781-.199219.5-.101562.203124-.101562.300781-.199219.5-.082031.15625-.117187.328124-.101562.5 0 .101562-.097657.300781-.097657.402343 0 .199219-.101562.398438-.101562.597657.003906.140624-.03125.28125-.101562.402343 0 .300781-.0976568.597657-.0976568.898438v40.101562c-.0078124 5.574219 4.4257808 10.140625 9.9999998 10.300781h308.597657c5.648437-.097656 10.203124-4.652343 10.300781-10.300781v-40l-.199219-.101562c0-.300781-.101562-.597657-.101562-.898438 0-.101562-.097657-.199219-.097657-.402343 0-.199219-.101562-.398438-.101562-.597657 0-.101562-.097657-.300781-.097657-.402343 0-.199219-.101562-.296876-.101562-.5 0-.199219-.101562-.296876-.199219-.5-.101562-.199219-.101562-.296876-.199219-.5-.101562-.199219-.101562-.296876-.203124-.5-.097657-.097657-.097657-.296876-.199219-.398438-.097657-.199219-.199219-.300781-.300781-.5-.097657-.101562-.097657-.199219-.199219-.300781-.199219-.199219-.300781-.5-.5-.699219l-.097657-.101562-66.5-81.199219 23.597657-212.199219h22.800781c12 0 21.800781 10.199219 21.800781 22.199219v118.5c0 5.523437 4.476563 10 10 10 5.523438 0 10-4.476563 10-10v-118.5c.097657-23-18.699219-42.199219-41.699219-42.199219zm-198.601562-66h113.5l10.5 22h-134.5zm139.800781 42h16.597657v24h-200v-24zm-163.5 269h160.898438l52.699219 65h-266.296876zm156.699219-20h-152.5l-9.898438-90h172.296876zm-220.601562 125v-20h289v20zm232.703124-235h-176.703124l-10.5-95h197.800781zm0 0"/><path d="m142.148438 380h46c5.523437 0 10-4.476562 10-10s-4.476563-10-10-10h-46c-5.519532 0-10 4.476562-10 10s4.480468 10 10 10zm0 0"/></svg>