<svg height="438pt" viewBox="0 -49 438 438" width="438pt" xmlns="http://www.w3.org/2000/svg"><path d="m398 61h-12v-7c-.046875-16.546875-13.453125-29.953125-30-30h-38c-16.546875.046875-29.953125 13.453125-30 30v7h-70v-21c.007812-22.09375-17.90625-40.0078125-40-40h-138c-22.09375-.0078125-40.0078125 17.90625-40 40v260c-.0078125 22.09375 17.90625 40.007812 40 40h358c22.09375.007812 40.007812-17.90625 40-40v-199c.007812-22.09375-17.90625-40.007812-40-40zm-90-7c.015625-5.515625 4.484375-9.984375 10-10h38c5.515625.015625 9.984375 4.484375 10 10v7h-58zm-78 27h168c11.03125.03125 19.96875 8.96875 20 20v28h-121.101562c-20.457032-21.035156-48.554688-32.898438-77.898438-32.898438s-57.441406 11.863282-77.898438 32.898438h-121.101562v-48zm-99.898438 124c0-49.097656 39.800782-88.898438 88.898438-88.898438s88.898438 39.800782 88.898438 88.898438-39.800782 88.898438-88.898438 88.898438c-49.070312-.066407-88.832031-39.828126-88.898438-88.898438zm-3.902343 57h-106.199219v-113h105.601562c-20.882812 34.832031-20.652343 78.390625.597657 113zm186.199219-113h105.601562v113h-106.199219c21.25-34.609375 21.480469-78.167969.597657-113zm-272.398438-129h138c11.03125.03125 19.96875 8.96875 20 20v21h-178v-21c.03125-11.03125 8.96875-19.96875 20-20zm358 300h-358c-11.03125-.03125-19.96875-8.96875-20-20v-18h122c42.523438 42.535156 111.476562 42.535156 154 0h122v18c-.03125 11.03125-8.96875 19.96875-20 20zm0 0"/><path d="m74 56h66c5.523438 0 10-4.476562 10-10s-4.476562-10-10-10h-66c-5.523438 0-10 4.476562-10 10s4.476562 10 10 10zm0 0"/></svg>