<svg height="466pt" viewBox="-91 0 466 466.10299" width="466pt" xmlns="http://www.w3.org/2000/svg"><path d="m142.050781 46.199219c-55.53125.027343-100.527343 45.070312-100.5 100.601562.027344 55.53125 45.070313 100.527344 100.601563 100.5 55.53125-.027343 100.527344-45.070312 100.5-100.601562-.097656-55.503907-45.097656-100.457031-100.601563-100.5zm0 181.101562c-44.484375-.027343-80.527343-36.113281-80.5-80.601562.027344-44.484375 36.113281-80.527344 80.601563-80.5 44.484375.027343 80.527344 36.113281 80.5 80.601562-.136719 44.441407-36.160156 80.417969-80.601563 80.5zm0 0"/><path d="m175.351562 144.199219h-28.300781v-40.199219c0-5.523438-4.476562-10-10-10-5.523437 0-10 4.476562-10 10v49.898438c.085938 5.617187 4.589844 10.160156 10.199219 10.300781h38c5.523438.027343 10.023438-4.425781 10.050781-9.949219.027344-5.523438-4.425781-10.023438-9.949219-10.050781zm0 0"/><path d="m142.050781 0c-78.199219 0-141.9999998 63.601562-141.9999998 141.699219v314.601562c.1406248 5.546875 4.7499998 9.933594 10.3007808 9.800781h263.5c5.5 0 10.300782-4.300781 10.300782-9.800781v-314.5c-.101563-78.199219-63.902344-141.800781-142.101563-141.800781zm-122 446.199219v-140h112v57.699219c-15.046875 4.917968-24.289062 20.039062-21.796875 35.671874 2.488282 15.632813 15.96875 27.136719 31.796875 27.136719s29.3125-11.503906 31.800781-27.136719c2.488282-15.632812-6.753906-30.753906-21.800781-35.671874v-57.699219h112v140zm122-63.898438c6.738281 0 12.199219 5.460938 12.199219 12.199219s-5.460938 12.199219-12.199219 12.199219-12.199219-5.460938-12.199219-12.199219c.027344-6.726562 5.472657-12.171875 12.199219-12.199219zm122-96.101562h-244v-144.398438c0-67.101562 54.902344-121.699219 122-121.699219 67.101563 0 122 54.597657 122 121.699219zm0 0"/></svg>