<svg height="448pt" viewBox="-32 0 448 448" width="448pt" xmlns="http://www.w3.org/2000/svg"><path d="m363.800781 0h-343.601562c-11.105469.0273438-20.1171878 8.996094-20.199219 20.101562v384.199219c.0546875 5.292969 2.21875 10.347657 6.007812 14.042969 3.792969 3.699219 8.898438 5.734375 14.191407 5.65625h4.800781v13.898438c-.042969 2.640624.96875 5.1875 2.808594 7.082031 1.835937 1.894531 4.351562 2.980469 6.992187 3.019531h60c5.574219-.046875 10.097657-4.527344 10.199219-10.101562v-13.898438h174v13.898438c.101562 5.574218 4.625 10.054687 10.199219 10.101562h60c2.640625-.039062 5.15625-1.125 6.992187-3.019531 1.839844-1.894531 2.851563-4.441407 2.808594-7.082031v-13.898438h4.800781c5.292969.078125 10.398438-1.957031 14.191407-5.65625 3.789062-3.695312 5.953124-8.75 6.007812-14.042969v-384.199219c-.082031-11.105468-9.09375-20.0742182-20.199219-20.101562zm.199219 102h-122v-82h122zm-142 302.300781h-90v-384.300781h90zm20-282.300781h122v80h-122zm-222 282.300781v-384.300781h92v384.300781zm65 23.699219h-40v-4h40zm254 0h-40v-4h40zm-97-23.699219v-182.300781h122v182.300781zm0 0"/><path d="m92 192c-5.515625.015625-9.984375 4.484375-10 10v23c0 5.523438 4.476562 10 10 10s10-4.476562 10-10v-23c-.015625-5.515625-4.484375-9.984375-10-10zm0 0"/><path d="m204 235c5.515625-.015625 9.984375-4.484375 10-10v-23c0-5.523438-4.476562-10-10-10s-10 4.476562-10 10v23c.015625 5.515625 4.484375 9.984375 10 10zm0 0"/><path d="m313.800781 252h-22.300781c-5.523438 0-10 4.476562-10 10s4.476562 10 10 10h22.300781c5.523438 0 10-4.476562 10-10s-4.476562-10-10-10zm0 0"/></svg>