<svg height="447pt" viewBox="-22 0 447 447.8" width="447pt" xmlns="http://www.w3.org/2000/svg"><path d="m363.902344 53h-63l-1.902344-43.300781c-.214844-5.378907-4.613281-9.6484378-10-9.699219h-263.597656c-3.65625.0273438-7.015625 2.011719-8.800782 5.199219-1.757812 3.203125-1.644531 7.105469.300782 10.199219l32.199218 50.5v87.5c-31.359374 32.421874-48.832031 75.796874-48.699218 120.902343 0 2 0 4 .097656 6v.300781c3.402344 92.796876 80.101562 167.199219 173.800781 167.199219 95.699219 0 173.601563-77.902343 173.601563-173.601562-.058594-41.417969-15.039063-81.429688-42.203125-112.699219l-4-88.601562h62.101562c5.292969-.074219 10.402344 1.960937 14.191407 5.65625 3.789062 3.695312 5.953124 8.75 6.007812 14.046874v148.199219c0 5.523438 4.476562 10 10 10s10-4.476562 10-10v-148.101562c.101562-22.097657-18.097656-39.699219-40.097656-39.699219zm-320.300782-33h235.800782l1.5 33h-216.5zm130.800782 407.5c-78.78125.308594-144.976563-59.136719-153.101563-137.5h305.800781c-7.972656 78.28125-74.015624 137.75-152.699218 137.5zm111.597656-261.5c.097656 2.253906 1.023438 4.390625 2.601562 6 24.898438 27.699219 38.5 62 39.398438 98h-307.5c.898438-39.808594 17.292969-77.695312 45.699219-105.601562 1.886719-1.800782 2.96875-4.289063 3-6.898438v-84.5h212.703125zm0 0"/></svg>