<svg height="454pt" viewBox="-29 0 454 454.001" width="454pt" xmlns="http://www.w3.org/2000/svg"><path d="m350 10c-.015625-5.515625-4.484375-9.984375-10-10h-285c-5.515625.015625-9.984375 4.484375-10 10v212c.015625 5.515625 4.484375 9.984375 10 10h285c5.515625-.015625 9.984375-4.484375 10-10zm-285 10h266v191h-266zm0 0"/><path d="m129.601562 244c-5.523437 0-10 4.476562-10 10s4.476563 10 10 10h136.5c5.523438 0 10-4.476562 10-10s-4.476562-10-10-10zm0 0"/><path d="m321 40c-.015625-5.515625-4.484375-9.984375-10-10h-226c-5.515625.015625-9.984375 4.484375-10 10v152c.015625 5.515625 4.484375 9.984375 10 10h226c5.515625-.015625 9.984375-4.484375 10-10zm-20 142h-206v-132h206zm0 0"/><path d="m356 280h-316c-10.578125-.070312-20.746094 4.078125-28.253906 11.53125-7.511719 7.453125-11.7382815 17.589844-11.746094 28.167969v124.5c.015625 2.628906 1.082031 5.144531 2.960938 6.984375 1.875 1.839844 4.410156 2.855468 7.039062 2.816406h376c2.628906.039062 5.164062-.976562 7.042969-2.816406 1.875-1.839844 2.941406-4.355469 2.957031-6.984375v-124.5c-.027344-10.570313-4.257812-20.699219-11.761719-28.148438-7.503906-7.449219-17.664062-11.605469-28.238281-11.550781zm20 154h-356v-60h356zm-356-80v-34.300781c.027344-5.269531 2.152344-10.308594 5.90625-14.007813 3.753906-3.695312 8.824219-5.746094 14.09375-5.691406h316c5.269531-.054688 10.339844 1.996094 14.09375 5.691406 3.753906 3.699219 5.878906 8.738282 5.90625 14.007813v34.300781zm0 0"/><path d="m225 318h-54c-5.523438 0-10 4.476562-10 10s4.476562 10 10 10h54c5.523438 0 10-4.476562 10-10s-4.476562-10-10-10zm0 0"/></svg>