<svg height="458pt" viewBox="0 -36 458 458" width="458pt" xmlns="http://www.w3.org/2000/svg"><path d="m427.601562 0h-397.203124c-16.5 0-30.398438 13.300781-30.398438 29.800781v283c0 16.5 13.898438 30.199219 30.398438 30.199219h128.601562v23h-46.5c-5.523438 0-10 4.476562-10 10s4.476562 10 10 10h232.398438c5.523437 0 10-4.476562 10-10s-4.476563-10-10-10h-45.898438v-23h128.601562c16.5 0 30.398438-13.699219 30.398438-30.199219v-283c0-16.5-13.898438-29.800781-30.398438-29.800781zm-148.601562 366h-100v-23h100zm159-53.199219c-.1875 5.628907-4.765625 10.121094-10.398438 10.199219h-397.203124c-5.632813-.078125-10.210938-4.570312-10.398438-10.199219v-39.800781h418zm-418-59.800781v-223.199219c0-5.5 4.898438-9.800781 10.398438-9.800781h397.101562c5.5 0 10.398438 4.300781 10.398438 9.800781v223.199219zm0 0"/><path d="m206 303h46c5.523438 0 10-4.476562 10-10s-4.476562-10-10-10h-46c-5.523438 0-10 4.476562-10 10s4.476562 10 10 10zm0 0"/></svg>