<svg height="454pt" viewBox="-2 0 454 454.00125" width="454pt" xmlns="http://www.w3.org/2000/svg"><path d="m419.601562 157h-11.5l1.097657-14h14c2.605469.070312 5.121093-.925781 6.972656-2.757812 1.851563-1.832032 2.871094-4.339844 2.828125-6.941407v-39.601562c.023438-10.5625-4.160156-20.699219-11.628906-28.167969-7.472656-7.46875-17.609375-11.65625-28.171875-11.632812h-82.199219v-13.796876c.097656-10.578124-4.027344-20.761718-11.460938-28.285156-7.433593-7.527344-17.558593-11.7812498-28.136718-11.816406h-93c-22.101563 0-40.402344 18.101562-40.402344 40.101562v13.898438h-81.300781c-10.554688-.035156-20.691407 4.148438-28.144531 11.621094-7.457032 7.476562-11.617188 17.621094-11.554688 28.179687v39.597657c-.066406 2.59375.9375 5.097656 2.769531 6.933593 1.832031 1.832031 4.339844 2.832031 6.929688 2.769531h14l1.101562 14h-11.398437c-16.5-.101562-30.402344 12.898438-30.402344 29.5v52c.203125 16.703126 13.695312 30.195313 30.402344 30.398438h20.699218l8.898438 107c1.839844 22.167969 18.171875 40.417969 40 44.699219v23.199219c.066406 5.589843 4.609375 10.089843 10.199219 10.101562h37.5c3.785156.058594 7.273437-2.035156 9-5.398438l13.203125-26.601562h110.097656l13.199219 26.601562c1.730469 3.363282 5.21875 5.457032 9 5.398438h37.5c5.597656-.039062 10.152343-4.507812 10.300781-10.101562v-23.199219c21.726562-4.429688 37.957031-22.613281 39.902344-44.699219l8.796875-107h20.800781c16.71875-.167969 30.230469-13.679688 30.402344-30.398438v-52c.097656-16.601562-13.800782-29.601562-30.300782-29.601562zm-261.601562-116.898438c0-11 9.402344-20.101562 20.402344-20.101562h93c5.265625.054688 10.296875 2.207031 13.976562 5.976562 3.675782 3.773438 5.699219 8.855469 5.621094 14.125v13.898438h-133zm-121 53.699219c-.0625-5.253906 1.992188-10.308593 5.695312-14.035156 3.707032-3.722656 8.753907-5.800781 14.003907-5.765625h336.5c5.257812-.023438 10.308593 2.058594 14.027343 5.773438 3.71875 3.71875 5.796876 8.769531 5.773438 14.027343v29.199219h-376zm-6.597656 155.199219c-5.671875-.171875-10.230469-4.730469-10.402344-10.398438v-52c0-5.5 4.902344-9.601562 10.402344-9.601562h13l6 72zm111.097656 185h-21.5v-12h27.5zm166.902344 0-6.101563-12h27.699219v12zm61.5-59.898438c-1.300782 15.398438-14.402344 27.898438-29.902344 27.898438h-230.199219c-15.5 0-28.601562-12.5-29.898437-27.898438l-19.203125-231.101562h328.402343zm60.097656-135.5c-.171875 5.667969-4.726562 10.226563-10.398438 10.398438h-19.199218l6-72h13.199218c5.5 0 10.398438 4.101562 10.398438 9.601562zm0 0"/><path d="m225 201.199219c-24.769531.015625-44.875 20.03125-45 44.800781v67.199219c0 24.855469 20.148438 45 45 45s45-20.144531 45-45v-67.199219c-.125-24.769531-20.230469-44.785156-45-44.800781zm25 112c-.078125 13.703125-11.195312 24.777343-24.898438 24.800781h-.101562c-13.714844.011719-24.855469-11.082031-24.898438-24.800781v-67.199219c0-13.808594 11.191407-25 25-25 13.804688 0 25 11.191406 25 25v67.199219zm0 0"/><path d="m231 260h-12c-5.523438 0-10 4.476562-10 10s4.476562 10 10 10h12c5.523438 0 10-4.476562 10-10s-4.476562-10-10-10zm0 0"/></svg>