<svg height="440pt" viewBox="-25 0 440 440.00069" width="440pt" xmlns="http://www.w3.org/2000/svg"><path d="m350.199219 51h-62.097657l-.800781-41.300781c-.144531-5.410157-4.585937-9.7187502-10-9.699219h-263.5c-3.605469.0078125-6.929687 1.957031-8.699219 5.101562-1.808593 3.152344-1.695312 7.058594.300782 10.097657l30.597656 49.402343v241.398438h-6.199219c-7.90625-.070312-15.511719 3.03125-21.113281 8.613281s-8.7304688 13.179688-8.6875 21.085938v94.5c-.0273438 2.609375.992188 5.117187 2.839844 6.964843 1.84375 1.84375 4.351562 2.867188 6.960937 2.835938h309.898438c5.5 0 10.300781-4.300781 10.300781-9.800781v-94.5c0-16.5-13.699219-29.699219-30.300781-29.699219h-6.398438l-4.800781-235h61.601562c11.011719.097656 19.871094 9.085938 19.800782 20.101562v148.199219c0 5.523438 4.476562 10 10 10 5.519531 0 10-4.476562 10-10v-148.199219c.074218-10.589843-4.074219-20.773437-11.523438-28.296874-7.449218-7.527344-17.589844-11.773438-28.179687-11.804688zm-40.199219 284.699219v84.300781h-290v-84.300781c-.023438-2.597657 1.003906-5.09375 2.847656-6.921875 1.847656-1.828125 4.355469-2.828125 6.953125-2.777344h269.898438c5.5 0 10.300781 4.101562 10.300781 9.699219zm-254-29.699219v-23h23c5.523438 0 10-4.476562 10-10s-4.476562-10-10-10h-23v-20h43c5.523438 0 10-4.476562 10-10s-4.476562-10-10-10h-43v-20h23c5.523438 0 10-4.476562 10-10s-4.476562-10-10-10h-23v-20h43c5.523438 0 10-4.476562 10-10s-4.476562-10-10-10h-43v-20h23c5.523438 0 10-4.476562 10-10s-4.476562-10-10-10h-23v-41.300781c.011719-1.871094-.507812-3.710938-1.5-5.300781l-22.699219-36.398438h235.699219l5.902344 286zm0 0"/><path d="m140 390h50c5.523438 0 10-4.476562 10-10s-4.476562-10-10-10h-50c-5.523438 0-10 4.476562-10 10s4.476562 10 10 10zm0 0"/></svg>