<svg height="472pt" viewBox="0 -39 472 472" width="472pt" xmlns="http://www.w3.org/2000/svg"><path d="m461.699219 0h-451.398438c-5.613281.0859375-10.160156 4.585938-10.300781 10.199219v81.5c.132812 5.632812 4.667969 10.167969 10.300781 10.300781h3.699219v281.800781c-.046875 5.535157 4.367188 10.082031 9.898438 10.199219h424.203124c5.53125-.117188 9.945313-4.664062 9.898438-10.199219v-281.800781h3.699219c5.632812-.132812 10.167969-4.667969 10.300781-10.300781v-81.5c-.140625-5.613281-4.6875-10.1132815-10.300781-10.199219zm-441.699219 20h432v62h-432zm14 190h192v164h-192zm212 164v-164h192v164zm192-184h-404v-88h404zm0 0"/><path d="m202.601562 159h66.796876c5.523437 0 10-4.476562 10-10s-4.476563-10-10-10h-66.796876c-5.523437 0-10 4.476562-10 10s4.476563 10 10 10zm0 0"/><path d="m193 235c-5.515625.015625-9.984375 4.484375-10 10v30.800781c0 5.523438 4.476562 10 10 10s10-4.476562 10-10v-30.800781c-.015625-5.515625-4.484375-9.984375-10-10zm0 0"/><path d="m279 235c-5.515625.015625-9.984375 4.484375-10 10v30.800781c0 5.523438 4.476562 10 10 10s10-4.476562 10-10v-30.800781c-.015625-5.515625-4.484375-9.984375-10-10zm0 0"/></svg>