<svg height="479pt" viewBox="-60 0 479 479.00005" width="479pt" xmlns="http://www.w3.org/2000/svg"><path d="m358 30c.011719-7.960938-3.148438-15.597656-8.773438-21.226562-5.628906-5.625-13.265624-8.7851568-21.226562-8.773438h-298c-7.960938-.0117188-15.597656 3.148438-21.226562 8.773438-5.625 5.628906-8.7851568 13.265624-8.773438 21.226562v419c-.0117188 7.960938 3.148438 15.597656 8.773438 21.226562 5.628906 5.625 13.265624 8.785157 21.226562 8.773438h298c7.960938.011719 15.597656-3.148438 21.226562-8.773438 5.625-5.628906 8.785157-13.265624 8.773438-21.226562zm-328.101562-10h298.300781c2.597656-.078125 5.117187.898438 6.980469 2.707031 1.867187 1.808594 2.917968 4.292969 2.921874 6.894531v78.398438h-318.101562v-78.398438c-.015625-2.605468 1.03125-5.101562 2.902344-6.914062 1.867187-1.8125 4.394531-2.785156 6.996094-2.6875zm107.101562 108h83v15c0 5.5-4 10-9.5 10h-63c-5.5 0-10.5-4.5-10.5-10zm10.5 45h63c7.898438-.042969 15.453125-3.234375 20.988281-8.863281 5.539063-5.632813 8.601563-13.238281 8.511719-21.136719v-15h98v280h-318v-280h97v15c0 16.5 14 30 30.5 30zm180.601562 285h-298.203124c-2.59375.078125-5.113282-.898438-6.980469-2.707031-1.863281-1.808594-2.917969-4.292969-2.917969-6.894531v-20.398438h318v20.398438c.015625 2.605468-1.03125 5.101562-2.902344 6.914062-1.867187 1.8125-4.394531 2.785156-6.996094 2.6875zm0 0"/><path d="m69 88c5.515625-.015625 9.984375-4.484375 10-10v-28c0-5.523438-4.476562-10-10-10s-10 4.476562-10 10v28c.015625 5.515625 4.484375 9.984375 10 10zm0 0"/><path d="m109 88c5.515625-.015625 9.984375-4.484375 10-10v-28c0-5.523438-4.476562-10-10-10s-10 4.476562-10 10v28c.015625 5.515625 4.484375 9.984375 10 10zm0 0"/><path d="m149 88c5.515625-.015625 9.984375-4.484375 10-10v-28c0-5.523438-4.476562-10-10-10s-10 4.476562-10 10v28c.015625 5.515625 4.484375 9.984375 10 10zm0 0"/></svg>