<svg height="430pt" viewBox="-31 0 430 430.4" width="430pt" xmlns="http://www.w3.org/2000/svg"><path d="m358.601562 80.199219h-135.601562c-14.863281-47.621094-58.910156-80.089844-108.800781-80.199219-63 0-114 51.199219-114 114.199219v202c0 63 51 114.199219 114 114.199219s114-51.296876 114-114.199219v-158h130.402343c5.5 0 9.597657-4.597657 9.597657-10.199219v-58.101562c.070312-2.574219-.914063-5.070313-2.726563-6.898438-1.8125-1.832031-4.296875-2.84375-6.871094-2.800781zm-236.601562 78h35.5c-16.234375 17.96875-41.851562 24.089843-64.453125 15.402343-22.601563-8.683593-37.523437-30.386718-37.546875-54.601562.054688-32.253906 26.246094-58.355469 58.5-58.300781 16.585938.136719 32.363281 7.207031 43.5 19.5h-35.5c-21.539062 0-39 17.460937-39 39 0 21.539062 17.460938 39 39 39zm0-20c-10.492188 0-19-8.503907-19-19 0-10.492188 8.507812-19 19-19h162.199219v38zm86.199219 178c0 51.914062-42.085938 94-94 94-51.914063 0-94-42.085938-94-94v-202c0-52 42.101562-94.300781 94-94.300781 21.40625-.007813 42.164062 7.335937 58.800781 20.800781 13.035156 10.28125 23 23.945312 28.800781 39.5h-19.800781c-17.6875-30.734375-53.832031-45.734375-88.085938-36.558594-34.25 9.175781-58.054687 40.234375-58.007812 75.695313.042969 35.460937 23.925781 66.460937 58.203125 75.550781 34.277344 9.085937 70.382813-6.007813 87.992187-36.785157h26.097657zm140-178h-44v-38h44zm0 0"/></svg>