<svg height="504pt" viewBox="-46 0 504 504.00104" width="504pt" xmlns="http://www.w3.org/2000/svg"><path d="m401.699219 316h-91.699219v-306.199219c.097656-2.578125-.859375-5.078125-2.65625-6.929687-1.792969-1.851563-4.265625-2.886719-6.84375-2.871094h-189c-2.578125-.015625-5.050781 1.019531-6.84375 2.871094-1.792969 1.851562-2.753906 4.351562-2.65625 6.929687v306.199219h-91.699219c-5.5 0-10.300781 4-10.300781 9.601562v31.5c.167969 5.550782 4.746094 9.953126 10.300781 9.898438h3.699219v127.199219c-.007812 2.621093 1.039062 5.132812 2.898438 6.972656 1.859374 1.84375 4.382812 2.863281 7.003906 2.828125h364.199218c2.617188.035156 5.140626-.984375 7-2.828125 1.863282-1.839844 2.90625-4.351563 2.898438-6.972656v-127.199219h3.699219c5.558593.054688 10.136719-4.347656 10.300781-9.898438v-31.5c0-5.601562-4.800781-9.601562-10.300781-9.601562zm-279.699219-296h168v296h-168zm-102 316h372v11h-372zm14 90h162v58h-162zm182 58v-58h162v58zm162-78h-344v-39h344zm0 0"/><path d="m172.601562 394h66.800782c5.519531 0 10-4.476562 10-10s-4.480469-10-10-10h-66.800782c-5.523437 0-10 4.476562-10 10s4.476563 10 10 10zm0 0"/><path d="m281 40c-.015625-5.515625-4.484375-9.984375-10-10h-129c-5.515625.015625-9.984375 4.484375-10 10v255c.015625 5.515625 4.484375 9.984375 10 10h129c5.515625-.015625 9.984375-4.484375 10-10zm-21 245h-108v-235h108zm0 0"/></svg>