<svg height="444pt" viewBox="-20 0 444 444.10715" width="444pt" xmlns="http://www.w3.org/2000/svg"><path d="m363.238281 72.003906h-52.203125l-3-62.601562c-.273437-5.304688-4.683594-9.449219-10-9.39843775h-288c-3.449218-.09375005-6.6875 1.66015575-8.5 4.59765575-1.820312 2.941407-1.972656 6.621094-.398437 9.703126l32.101562 62.699218c2.398438 4.726563 3.503907 10.007813 3.199219 15.300782l-19.300781 341.5c-.179688 2.707031.804687 5.359374 2.699219 7.296874 1.910156 1.972657 4.554687 3.058594 7.300781 3h291c2.699219.078126 5.304687-.972656 7.199219-2.898437 1.882812-1.953125 2.894531-4.585937 2.800781-7.300781l-3.199219-67.800782h31.699219c5.523437 0 10-4.476562 10-10 0-5.519531-4.476563-10-10-10h-32.699219l-12-254h51.199219c11 0 20.398437 9 20.398437 20v185.5c0 5.523438 4.476563 10 10 10 5.523438 0 10-4.476562 10-10v-185.597656c.101563-22.101562-18.296875-40-40.296875-40zm-336.800781-52h262.097656l2.5 52h-238.097656c-.601562-1.402344-1.199219-2.699218-1.902344-4zm11.199219 404 1.699219-30h266.800781l1.398437 30zm267.601562-50h-264.703125l15.902344-280.800781v-1.199219h235.398438zm0 0"/><path d="m246.636719 157.003906c-.03125-11.03125-8.96875-19.96875-20-20h-50c-11.03125.03125-19.96875 8.96875-20 20v176c.03125 11.03125 8.96875 19.96875 20 20h50c11.03125-.03125 19.96875-8.96875 20-20zm-70 176v-16h20c5.523437 0 10-4.476562 10-10 0-5.523437-4.476563-10-10-10h-20v-10h20c5.523437 0 10-4.476562 10-10 0-5.523437-4.476563-10-10-10h-20v-10h20c5.523437 0 10-4.476562 10-10 0-5.523437-4.476563-10-10-10h-20v-10h20c5.523437 0 10-4.476562 10-10 0-5.523437-4.476563-10-10-10h-20v-10h50v136zm50-176v20h-50v-20zm0 0"/></svg>