<svg height="460pt" viewBox="-59 0 460 460.20052" width="460pt" xmlns="http://www.w3.org/2000/svg"><path d="m232.5 122.699219-25 11.5-.199219-.199219 11.5-25.101562c5.917969-12.957032 6.347657-27.757813 1.1875-41.035157-5.164062-13.277343-15.472656-23.902343-28.589843-29.464843-13.144532-5.5-27.949219-5.5-41.097657 0-13.117187 5.5625-23.425781 16.1875-28.585937 29.464843-5.160156 13.277344-4.734375 28.078125 1.183594 41.035157l11.5 25-.199219.203124-25-11.5c-12.957031-5.921874-27.757813-6.347656-41.035157-1.1875-13.277343 5.160157-23.902343 15.46875-29.464843 28.585938-5.5 13.148438-5.5 27.953125 0 41.101562 8.292969 19.496094 27.414062 32.164063 48.601562 32.199219 7.5625.019531 15.039063-1.621093 21.898438-4.800781l25-11.5.199219.199219-11.5 25c-10.113282 22.152343-3.757813 48.347656 15.382812 63.402343 19.140625 15.050782 46.097656 15.050782 65.238281 0 19.140625-15.054687 25.496094-41.25 15.378907-63.402343l-11.5-25 .203124-.199219 25 11.5c12.957032 5.917969 27.757813 6.347656 41.035157 1.1875 13.277343-5.160156 23.902343-15.472656 29.464843-28.585938 5.5-13.148437 5.5-27.953124 0-41.101562-5.5625-13.140625-16.210937-23.460938-29.519531-28.605469-13.304687-5.144531-28.128906-4.675781-41.082031 1.304688zm-93.398438 48c0-17.507813 14.191407-31.699219 31.699219-31.699219 17.507813 0 31.699219 14.191406 31.699219 31.699219 0 17.507812-14.191406 31.699219-31.699219 31.699219-17.503906-.003907-31.695312-14.191407-31.699219-31.699219zm2-70.097657c-3.703124-8.035156-3.996093-17.222656-.8125-25.476562 3.183594-8.25 9.574219-14.859375 17.710938-18.324219 8.160156-3.402343 17.339844-3.402343 25.5 0 8.136719 3.464844 14.527344 10.074219 17.710938 18.324219 3.183593 8.253906 2.890624 17.441406-.8125 25.476562l-10.199219 22.199219c-12.546875-5.199219-26.648438-5.199219-39.199219 0zm-40.402343 99.796876c-4.261719 1.976562-8.902344 3-13.597657 3-4.066406-.039063-8.089843-.785157-11.902343-2.199219-8.253907-3.164063-14.863281-9.554688-18.300781-17.699219-3.398438-8.160156-3.398438-17.339844 0-25.5 3.464843-8.136719 10.078124-14.527344 18.328124-17.710938 8.253907-3.183593 17.441407-2.890624 25.472657.8125l22.199219 10.199219c-2.582032 6.210938-3.910157 12.871094-3.898438 19.597657.007812 6.726562 1.332031 13.386718 3.898438 19.601562zm99.800781 40.300781c4.992188 10.832031 3.695312 23.527343-3.394531 33.121093-7.085938 9.59375-18.832031 14.570313-30.65625 12.984376-11.820313-1.585938-21.84375-9.480469-26.148438-20.605469-3.246093-8.25-2.953125-17.46875.800781-25.5l10.199219-22.199219c12.546875 5.199219 26.648438 5.199219 39.199219 0zm84.101562-82.800781c3.398438 8.160156 3.398438 17.339843 0 25.5-5.148437 12.105468-17.046874 19.945312-30.203124 19.902343-4.695313.007813-9.339844-1.015625-13.597657-3l-22.199219-10.199219c2.585938-6.210937 3.910157-12.875 3.898438-19.601562-.007812-6.726562-1.332031-13.382812-3.898438-19.601562l22.199219-10.199219c8.042969-3.703125 17.242188-3.992188 25.5-.800781 8.257813 3.316406 14.847657 9.796874 18.300781 18zm0 0"/><path d="m198.199219 170.699219c0-15.132813-12.265625-27.398438-27.398438-27.398438-15.132812 0-27.402343 12.265625-27.402343 27.398438 0 15.132812 12.269531 27.402343 27.402343 27.402343 15.121094-.023437 27.375-12.277343 27.398438-27.402343zm-34.800781 0c0-4.085938 3.316406-7.398438 7.402343-7.398438 4.085938 0 7.398438 3.3125 7.398438 7.398438 0 4.085937-3.3125 7.402343-7.398438 7.402343-1.964843.003907-3.847656-.773437-5.238281-2.164062-1.386719-1.386719-2.167969-3.273438-2.164062-5.238281zm0 0"/><path d="m170.800781 0c-94.101562 0-170.699219 76.601562-170.699219 170.699219 0 81.800781 57.898438 150.5 134.796876 167.101562l-6.5 55.398438h-8.398438c-11.1875-.0625-21.9375 4.332031-29.875 12.214843-7.9375 7.878907-12.410156 18.601563-12.425781 29.785157v15.101562c-.011719 2.628907 1.03125 5.152344 2.886719 7.011719 1.859374 1.859375 4.386718 2.898438 7.015624 2.886719h166.199219c2.632813.027343 5.167969-1.007813 7.03125-2.867188 1.859375-1.863281 2.894531-4.398437 2.867188-7.03125v-15.199219c0-11.191406-4.464844-21.921874-12.40625-29.804687-7.941407-7.886719-18.703125-12.277344-29.894531-12.195313h-8.398438l-6.5-55.402343c77-16.5 134.800781-85.199219 134.800781-167 .199219-94.097657-76.402343-170.699219-170.5-170.699219zm73 435.101562v5h-146v-5c0-5.890624 2.359375-11.53125 6.550781-15.664062 4.1875-4.136719 9.863282-6.417969 15.75-6.335938h101.5c5.871094-.058593 11.519532 2.234376 15.691407 6.367188 4.167969 4.128906 6.511719 9.761719 6.507812 15.632812zm-50.800781-42h-44.398438l6.097657-52.300781c5.300781.5 10.699219.699219 16.101562.699219 5.398438 0 10.800781-.101562 16.097657-.601562zm2.199219-73.703124h-.699219l-1.5.300781c-7.347656 1.09375-14.769531 1.628906-22.199219 1.601562-7.429687-.023437-14.847656-.558593-22.199219-1.601562l-1.5-.300781h-.703124c-71.5-11.699219-126.296876-73.898438-126.296876-148.699219 0-83.097657 67.597657-150.699219 150.699219-150.699219 83.097657 0 150.699219 67.601562 150.699219 150.699219 0 74.699219-54.800781 137-126.300781 148.699219zm0 0"/></svg>