<svg height="478pt" viewBox="-121 0 478 478.00003" width="478pt" xmlns="http://www.w3.org/2000/svg"><path d="m153.699219 84.898438-6 2.703124 2.699219-6c4.105468-8.863281 4.394531-19.019531.800781-28.101562-5.386719-13.890625-18.753907-23.046875-33.652344-23.046875s-28.265625 9.15625-33.648437 23.046875c-3.59375 9.082031-3.304688 19.238281.800781 28.101562l2.699219 6-6-2.703124c-8.867188-4.058594-19-4.347657-28.082032-.804688-9.085937 3.542969-16.34375 10.617188-20.117187 19.605469-3.800781 8.992187-3.796875 19.136719.007812 28.125 3.804688 8.984375 11.089844 16.046875 20.191407 19.574219 4.175781 1.628906 8.617187 2.476562 13.097656 2.5 5.183594.007812 10.300781-1.121094 15-3.296876l6-2.703124-2.699219 6c-4.105469 8.863281-4.394531 19.019531-.800781 28.101562 5.363281 13.925781 18.78125 23.082031 33.703125 23 4.835937-.019531 9.621093-.972656 14.097656-2.800781 8.988281-3.808594 16.054687-11.085938 19.59375-20.179688 3.539063-9.097656 3.253906-19.238281-.792969-28.121093l-2.699218-6 6 2.703124c4.699218 2.175782 9.820312 3.304688 15 3.296876 4.484374.023437 8.933593-.824219 13.097656-2.5 12.25-4.808594 20.917968-15.890626 22.628906-28.9375 1.714844-13.046876-3.792969-25.992188-14.382812-33.804688-10.589844-7.808594-24.585938-9.246094-36.542969-3.757812zm-51.402344 32.800781c0-8.503907 6.894531-15.398438 15.402344-15.398438 8.503906 0 15.398437 6.894531 15.398437 15.398438 0 8.507812-6.894531 15.402343-15.398437 15.402343-8.503907-.003906-15.398438-6.898437-15.402344-15.402343zm.402344-56.800781c2.375-6.1875 8.320312-10.269532 14.949219-10.269532 6.628906 0 12.570312 4.082032 14.949218 10.269532 1.621094 4.039062 1.476563 8.574218-.398437 12.5l-4.703125 10.300781c-3.214844-.933594-6.550782-1.402344-9.898438-1.398438-3.347656 0-6.683594.472657-9.898437 1.398438l-4.703125-10.300781c-1.695313-3.972657-1.800782-8.445313-.296875-12.5zm-29.300781 71.402343c-5.3125 2.46875-11.550782 1.84375-16.265626-1.628906-4.714843-3.476563-7.160156-9.246094-6.378906-15.050781.785156-5.808594 4.675782-10.722656 10.144532-12.820313 4.039062-1.625 8.570312-1.476562 12.5.398438l10.300781 4.699219c-.933594 3.21875-1.40625 6.550781-1.402344 9.902343.003906 3.347657.472656 6.679688 1.402344 9.898438zm59.300781 42.199219c-1.5625 4.054688-4.703125 7.304688-8.703125 9-4.011719 1.601562-8.484375 1.601562-12.5 0-4-1.695312-7.136719-4.945312-8.699219-9-1.621094-4.039062-1.476563-8.574219.402344-12.5l4.699219-10.300781c3.214843.933593 6.550781 1.40625 9.898437 1.402343 3.351563-.003906 6.683594-.476562 9.902344-1.402343l4.699219 10.300781c1.695312 3.976562 1.800781 8.449219.300781 12.5zm50.796875-50.5c-1.695313 4-4.945313 7.140625-9 8.699219-4.039063 1.625-8.570313 1.476562-12.5-.398438l-10.296875-4.699219c.929687-3.21875 1.402343-6.550781 1.398437-9.902343-.003906-3.347657-.472656-6.679688-1.398437-9.898438l10.296875-4.699219c3.945312-1.820312 8.457031-1.964843 12.507812-.398437 4.050782 1.5625 7.292969 4.699219 8.992188 8.695313 1.703125 4.03125 1.703125 8.574218 0 12.601562zm0 0"/><path d="m117.699219 0c-59.792969-.0351562-110.097657 44.789062-116.929688 104.191406-6.828125 59.398438 31.988281 114.472656 90.226563 128.007813l-.296875 196.800781h-18c-11.535157.058594-20.890625 9.363281-21 20.898438v18.101562c.15625 5.574219 4.722656 10.007812 10.296875 10h111.402344c5.574218.007812 10.140624-4.425781 10.300781-10v-18.101562c-.148438-11.519532-9.480469-20.804688-21-20.898438h-18l-.402344-196.800781c53.253906-12.453125 90.9375-59.910157 91-114.597657.101563-64.800781-52.699219-117.601562-117.597656-117.601562zm46 449.898438v8.101562h-92v-8.101562c.109375-.480469.507812-.839844 1-.898438h90c.488281.058594.886719.417969 1 .898438zm-39-20.898438h-14l.398437-193.898438c2.199219.097657 4.398438.199219 6.699219.199219s4.5-.101562 6.699219-.199219zm8.898437-215c-.582031-.007812-1.15625.09375-1.699218.300781-4.703126.6875-9.449219 1.023438-14.199219 1-4.75-.027343-9.496094-.363281-14.203125-1-.597656-.101562-1.097656-.199219-1.699219-.300781-50.242187-8.277344-85.726563-53.722656-81.574219-104.476562 4.152344-50.75 46.554688-89.824219 97.476563-89.824219 50.917969 0 93.320312 39.074219 97.472656 89.824219 4.152344 50.753906-31.332031 96.199218-81.574219 104.476562zm0 0"/></svg>