<svg height="489pt" viewBox="0 -72 489.51318 489" width="489pt" xmlns="http://www.w3.org/2000/svg"><path d="m388.601562 9.058594c-27.703124-.898438-53.800781 8.199218-74.101562 27.199218h-.398438l-15-18c-9.496093-11.511718-23.679687-18.125-38.601562-18h-31.300781c-14.917969-.101562-29.089844 6.507813-38.597657 18l-14.902343 18c-19.261719-17.582031-44.421875-27.289062-70.5-27.199218-57.898438 0-105.199219 47-105.199219 104.800781 0 28.300781 11.898438 55.597656 31.898438 75.597656v99.800781c0 30.601563 25.300781 55 55.902343 55h17.300781c27.875.035157 51.429688-20.652343 55-48.300781l6.699219-53.699219c2.234375-17.730468 17.328125-31.023437 35.199219-31h.101562l86.398438.402344c17.777344.128906 32.722656 13.367188 35 31l6.800781 53.398438c3.574219 27.625 27.144531 48.277344 55 48.199218h16.199219c14.652344.09375 28.734375-5.660156 39.132812-15.984374 10.398438-10.320313 16.253907-24.363282 16.265626-39.015626v-99.597656c20.371093-19.328125 32.117187-46.027344 32.601562-74.101562.898438-56.898438-44.398438-104.601563-100.898438-106.5zm-159.300781 11.199218h31.300781c8.914063-.082031 17.398438 3.84375 23.097657 10.699219l4.5 5.300781h-86.597657l4.5-5.300781c5.742188-6.859375 14.253907-10.785156 23.199219-10.699219zm211.097657 157.300782c-2.207032 1.910156-3.484376 4.679687-3.5 7.601562v104.097656c-.03125 9.34375-3.785157 18.285157-10.425782 24.855469-6.644531 6.566407-15.632812 10.21875-24.972656 10.144531h-16.199219c-17.769531.082032-32.816406-13.078124-35.101562-30.699218l-6.800781-53.5c-3.5625-27.582032-26.984376-48.273438-54.796876-48.398438l-86.402343-.300781h-.199219c-27.945312.0625-51.496094 20.875-55 48.597656l-6.699219 53.601563c-2.253906 17.691406-17.367187 30.914062-35.199219 30.800781h-17.300781c-19.601562-.101563-35.902343-15.601563-35.902343-35.101563v-104.097656c.070312-2.796875-1.058594-5.488281-3.097657-7.402344-18.171875-16.285156-28.597656-39.5-28.699219-63.898437 0-46.800781 38.199219-84.800781 85-84.800781 22.0625-.050782 43.273438 8.527344 59.097657 23.898437l.101562.101563c.054688.054687.089844.125.097657.199218 1.890624 2.027344 4.53125 3.183594 7.300781 3.199219h146.699219c2.621093-.039062 5.121093-1.074219 7-2.898437 16.527343-16.410156 39.128906-25.210938 62.402343-24.300782 45.699219 1.5 82.398438 40.199219 81.597657 86.199219-.121094 23.945313-10.71875 46.636719-29 62.101563zm0 0"/><path d="m108.5 49.058594c-35.734375 0-64.699219 28.96875-64.699219 64.699218 0 35.734376 28.964844 64.699219 64.699219 64.699219s64.699219-28.964843 64.699219-64.699219c-.023438-35.722656-28.976563-64.675781-64.699219-64.699218zm0 109.398437c-24.6875 0-44.699219-20.011719-44.699219-44.699219s20.011719-44.699218 44.699219-44.699218 44.699219 20.011718 44.699219 44.699218c-.027344 24.675782-20.023438 44.675782-44.699219 44.699219zm0 0"/><path d="m400.699219 140.359375c-10.640625-10.683594-27.894531-10.816406-38.699219-.300781-10.722656 10.640625-10.8125 27.949218-.199219 38.699218 10.601563 10.742188 27.90625 10.855469 38.648438.25 10.742187-10.601562 10.855469-27.90625.25-38.648437zm-14.300781 24.398437c-2.90625 2.820313-7.542969 2.773438-10.398438-.097656-1.375-1.378906-2.136719-3.253906-2.101562-5.203125.003906-1.957031.796874-3.832031 2.203124-5.199219 1.386719-1.359374 3.253907-2.117187 5.199219-2.097656 1.964844-.027344 3.847657.769532 5.199219 2.199219 2.820312 2.910156 2.773438 7.542969-.101562 10.398437zm0 0"/><path d="m404.699219 97.957031c-10.722657 10.640625-10.8125 27.953125-.199219 38.703125 10.640625 10.722656 27.949219 10.808594 38.699219.199219 10.683593-10.640625 10.816406-27.898437.300781-38.699219-10.6875-10.707031-28.003906-10.796875-38.800781-.203125zm24.402343 24.703125c-2.910156 2.816406-7.546874 2.773438-10.402343-.101562-1.375-1.375-2.132813-3.253906-2.097657-5.199219 0-1.960937.792969-3.835937 2.199219-5.199219 1.386719-1.363281 3.257813-2.117187 5.199219-2.101562 1.964844-.023438 3.851562.773437 5.199219 2.199218 2.773437 2.929688 2.726562 7.527344-.097657 10.402344zm0 0"/><path d="m366.398438 117.257812c.007812-13.03125-9.191407-24.253906-21.972657-26.800781s-25.582031 4.289063-30.570312 16.328125c-4.992188 12.039063-.78125 25.925782 10.054687 33.167969 10.832032 7.242187 25.273438 5.820313 34.488282-3.394531 5.128906-5.113282 8.007812-12.058594 8-19.300782zm-22.199219 5.199219c-1.375 1.378907-3.253907 2.136719-5.199219 2.101563-1.9375-.011719-3.796875-.761719-5.199219-2.101563-1.378906-1.375-2.136719-3.253906-2.101562-5.199219.011719-1.9375.761719-3.796874 2.101562-5.199218 1.375-1.378906 3.253907-2.136719 5.199219-2.101563 1.9375.011719 3.796875.765625 5.199219 2.101563 1.378906 1.375 2.136719 3.253906 2.101562 5.199218.082031 1.957032-.683593 3.851563-2.101562 5.199219zm0 0"/><path d="m381.398438 102.257812c11.0625-.011718 21.023437-6.683593 25.25-16.902343 4.222656-10.222657 1.875-21.980469-5.949219-29.796875-10.6875-10.6875-28.011719-10.6875-38.699219 0s-10.6875 28.011718 0 38.699218c5.164062 5.113282 12.132812 7.984376 19.398438 8zm-5.199219-32.5c2.871093-2.871093 7.527343-2.871093 10.402343 0 2.871094 2.871094 2.871094 7.527344 0 10.402344-2.875 2.871094-7.53125 2.871094-10.402343 0-1.382813-1.378906-2.160157-3.25-2.160157-5.203125 0-1.949219.777344-3.820312 2.160157-5.199219zm0 0"/><path d="m280.898438 148.257812h-72c-5.519532 0-10 4.476563-10 10 0 5.523438 4.480468 10 10 10h72c5.523437 0 10-4.476562 10-10 0-5.523437-4.476563-10-10-10zm0 0"/></svg>