<svg height="500pt" viewBox="0 -41 500.1 500" width="500pt" xmlns="http://www.w3.org/2000/svg"><path d="m460.5 252.050781h-7.300781c-3.417969-13.042969-13.320313-23.402343-26.199219-27.402343v-82.898438c0-78.199219-63.601562-141.6992188-141.800781-141.6992188h-70.300781c-78.296876 0-141.898438 63.4999998-141.898438 141.6992188v82.898438c-12.878906 4-22.78125 14.359374-26.199219 27.402343h-7.300781c-21.746094.070313-39.375 17.652344-39.5 39.398438v58.101562c.117188 21.765625 17.734375 39.382813 39.5 39.5h.800781c1.742188 6.320313 5.003907 12.121094 9.5 16.898438 7.433594 7.835937 17.796875 12.222656 28.597657 12.101562h42.800781c5.300781.015625 9.691406-4.109375 10-9.402343l9.800781-175.296876c.179688-2.707031-.804688-5.363281-2.699219-7.300781-1.910156-1.972656-4.554687-3.058593-7.300781-3h-9v-81.300781c0-51 41.800781-92.699219 92.800781-92.699219h70.300781c51 0 92.796876 41.699219 92.796876 92.699219v81.300781h-8.796876c-2.742187-.039062-5.378906 1.046875-7.300781 3-1.914062 1.96875-2.898437 4.660157-2.699219 7.398438l9.796876 175.199219c.3125 5.292968 4.703124 9.417968 10 9.402343h42.800781c10.796875.101563 21.15625-4.28125 28.601562-12.101562 4.457031-4.800781 7.714844-10.59375 9.5-16.898438h.800781c21.78125-.082031 39.417969-17.71875 39.5-39.5v-58.101562c-.207031-21.75-17.847656-39.300781-39.601562-39.398438zm-440.5 97.5v-58.101562c.128906-10.699219 8.800781-19.328125 19.5-19.398438h5.398438l-5.5 96.800781c-10.644532-.070312-19.273438-8.65625-19.398438-19.300781zm91.601562 48.5h-33.300781c-5.292969.019531-10.359375-2.148437-13.996093-5.996093-3.636719-3.84375-5.519532-9.023438-5.203126-14.304688l6.5-116.601562c.59375-10.203126 9.074219-18.160157 19.296876-18.097657h35.402343zm173.597657-369h-70.300781c-62.097657 0-112.898438 50.699219-112.898438 112.699219v81.300781h-9v-81.300781c0-67.101562 54.699219-121.699219 121.800781-121.699219h70.300781c67.199219 0 121.898438 54.597657 121.898438 121.699219v81.300781h-9v-81.300781c0-62-50.800781-112.699219-112.800781-112.699219zm150.5 363c-3.632813 3.851563-8.703125 6.023438-14 6h-33.300781l-8.699219-155h35.402343c10.207032-.027343 18.671876 7.910157 19.296876 18.097657l6.5 116.601562c.351562 5.285156-1.535157 10.476562-5.199219 14.300781zm44.300781-42.5c-.097656 10.640625-8.757812 19.210938-19.398438 19.199219l-5.5-96.800781h5.398438c10.699219.074219 19.371094 8.699219 19.5 19.402343zm0 0"/></svg>