<svg height="498pt" viewBox="0 -92 498.24066 498" width="498pt" xmlns="http://www.w3.org/2000/svg"><path d="m465.5 35.820312c-.710938-4.910156-4.9375-8.539062-9.898438-8.5h-.199218l-128.101563 2.699219c-.054687-16.527343-13.46875-29.898437-30-29.898437h-46.5c-7.914062-.003906-15.5 3.148437-21.074219 8.765625-5.578124 5.613281-8.683593 13.222656-8.625 21.132812v6.902344c-16.621093 3.800781-32.683593 9.714844-47.800781 17.597656-28.421875 14.707031-53.140625 35.664063-72.300781 61.300781l-97.796875 131.300782c-1.191406 1.671875-1.886719 3.648437-2 5.699218l-1.203125 51.101563c-.0429688 2.671875.960938 5.257813 2.800781 7.199219 1.855469 1.921875 4.433594 2.972656 7.101563 2.898437h458.300781c4.078125.046875 7.769531-2.414062 9.296875-6.199219l20-50c.703125-1.636718.910156-3.445312.601562-5.199218zm-224.398438-5.800781c-.054687-2.605469.941407-5.128906 2.765626-6.992187 1.828124-1.863282 4.324218-2.910156 6.933593-2.90625h46.5c2.621094-.007813 5.132813 1.035156 6.972657 2.898437 1.84375 1.859375 2.863281 4.382813 2.828124 7v.402344l-42.101562.898437c-7.996094.183594-15.972656.816407-23.898438 1.898438zm-124.199218 97.699219c35.074218-47.011719 89.859375-75.234375 148.5-76.5l181.699218-3.796875 29.5 196.699219h-446.398437zm344.597656 166.402344h-441.296875l.699219-30h452.597656zm0 0"/><path d="m193.601562 224.121094h245.300782c2.953125.007812 5.761718-1.269532 7.699218-3.5 1.910157-2.273438 2.679688-5.289063 2.101563-8.199219l-22.902344-122.902344c-1.699219-9.199219-12.5-10.699219-24-12.300781-7.300781-1-16.898437-2-28.300781-2.898438-14.621094-1.191406-29.328125-.925781-43.898438.800782-21.5 2.597656-38.699218 8-54.101562 17.097656-14.597656 8.601562-26.597656 19.703125-39.5 32.300781-24.597656 23.800781-44.597656 57.300781-52.199219 87.300781-.785156 2.957032-.117187 6.113282 1.800781 8.5 1.96875 2.394532 4.898438 3.789063 8 3.800782zm56.398438-85.300782c24.800781-24 42.101562-39 82.101562-43.898437 13.246094-1.542969 26.609376-1.777344 39.898438-.703125 21 1.703125 30.800781 3.101562 35.203125 4.101562l19.699219 105.800782h-219.699219c9.277344-24.65625 23.890625-46.957032 42.796875-65.300782zm0 0"/><path d="m130.300781 175.019531c1.742188 1.28125 3.839844 1.980469 6 2 3.144531-.019531 6.097657-1.496093 8-4l30-40c3.3125-4.417969 2.417969-10.683593-2-14-4.417969-3.3125-10.6875-2.417969-14 2l-30 40c-3.296875 4.421875-2.402343 10.679688 2 14zm0 0"/></svg>