<svg height="428pt" viewBox="0 -35 428.10478 428" width="428pt" xmlns="http://www.w3.org/2000/svg"><path d="m425.101562 264.953125-127.097656-127.101563v-127.699218c.058594-2.644532-.945312-5.203125-2.789062-7.101563-1.839844-1.894531-4.367188-2.9765622-7.011719-2.9999998h-148.402344c-2.644531.0234376-5.167969 1.1054688-7.011719 3.0039068-1.839843 1.898437-2.84375 4.453124-2.785156 7.097656v127.699218l-127.101562 127.101563c-1.882813 1.878906-2.9257815 4.4375-2.89843775 7.097656v76c-.05859375 2.644531.94531275 5.203125 2.78515575 7.101563 1.84375 1.898437 4.367188 2.980468 7.011719 3h408.5c2.644531-.023438 5.171875-1.101563 7.011719-3 1.84375-1.898438 2.847656-4.457032 2.789062-7.101563v-76c-.082031-2.65625-1.152343-5.1875-3-7.097656zm-147.097656-244.902344v112h-128v-112zm-134.101562 132h140.199218l110 110h-360.199218zm-123.898438 186v-56h388v56zm0 0"/><path d="m353.003906 300.050781h-279c-5.523437 0-10 4.480469-10 10 0 5.523438 4.476563 10 10 10h279c5.519532 0 10-4.476562 10-10 0-5.519531-4.480468-10-10-10zm0 0"/></svg>