<svg height="458pt" viewBox="-105 0 458 458.00423" width="458pt" xmlns="http://www.w3.org/2000/svg"><path d="m208.875 7.601562c-1.085938-4.472656-5.097656-7.6132808-9.699219-7.601562h-149c-4.625-.0859375-8.675781 3.089844-9.699219 7.601562l-40.199218 170.199219c-.714844 2.960938-.023438 6.085938 1.871094 8.46875 1.898437 2.382813 4.785156 3.757813 7.828124 3.730469h84.601563v207h-41c-16.5 0-30 13.800781-30 30.300781v21c.019531 2.621094 1.089844 5.121094 2.96875 6.945313 1.878906 1.824218 4.410156 2.816406 7.03125 2.753906h182c2.617187.0625 5.148437-.929688 7.027344-2.753906 1.882812-1.824219 2.949219-4.324219 2.972656-6.945313v-21c0-16.5-13.402344-30.300781-30-30.300781h-41v-207h84.699219c3.03125-.011719 5.890625-1.398438 7.777344-3.769531 1.886718-2.371094 2.59375-5.472657 1.921874-8.429688zm-150.898438 12.398438h133.199219l25.402344 107h-184zm147.601563 407.300781v10.699219h-162v-10.699219c-.007813-5.574219 4.425781-10.140625 10-10.300781h142c5.570313.160156 10.003906 4.726562 10 10.300781zm-71-30.300781h-20v-207h20zm-112.101563-227 5.300782-23h193.5l5.300781 23zm0 0"/></svg>