<svg height="497pt" viewBox="-75 0 497 497.5" width="497pt" xmlns="http://www.w3.org/2000/svg"><path d="m316.214844 284.398438c-6.285156-27.175782-30.503906-46.414063-58.398438-46.398438h-52v-227.5c-.164062-5.691406-4.710937-10.28125-10.398437-10.5h-40c-5.5 0-9.601563 5-9.601563 10.5v227.5h-56c-27.894531-.015625-52.109375 19.222656-58.398437 46.398438l-30.902344 131.5c-.703125 2.945312 0 6.046874 1.902344 8.402343 1.894531 2.359375 4.769531 3.722657 7.796875 3.699219h100.601562v6.5c0 34.792969 28.207032 63 63 63 34.792969 0 63-28.207031 63-63v-6.5h100.601563c3.039062.070312 5.9375-1.277344 7.839843-3.652344 1.902344-2.371094 2.589844-5.496094 1.859376-8.449218zm-150.398438-264.398438h20v218h-20zm-76 238h168c18.570313-.085938 34.726563 12.703125 38.898438 30.800781l2.203125 9.199219h-250.203125l2.203125-9.199219c4.203125-18.078125 20.339843-30.855469 38.898437-30.800781zm127 176.5c0 23.75-19.25 43-43 43s-43-19.25-43-43v-6.5h86zm-194-26.5 21.199219-90h259.601563l21.199218 90zm0 0"/></svg>