<svg height="486pt" viewBox="0 -64 486.0002 486" width="486pt" xmlns="http://www.w3.org/2000/svg"><path d="m476 273h-10v-233.199219c-.105469-22.09375-18.105469-39.917969-40.199219-39.800781h-365.601562c-22.097657 0-40.199219 17.800781-40.199219 39.800781v233.199219h-10c-5.554688.109375-10 4.644531-10 10.199219v35c.00390625 10.589843 4.226562 20.742187 11.734375 28.210937 7.503906 7.46875 17.675781 11.636719 28.265625 11.589844h406c22.039062.066406 39.953125-17.757812 40-39.800781v-35c.035156-5.570313-4.429688-10.125-10-10.199219zm-415.800781-253h365.601562c11.03125-.078125 20.054688 8.769531 20.199219 19.800781v206.199219h-406v-206.199219c.144531-11.03125 9.167969-19.878906 20.199219-19.800781zm-20.199219 246h406v7h-117.199219c-2.691406.027344-5.253906 1.148438-7.101562 3.101562l-11.199219 11.699219c-3.738281 3.921875-8.882812 6.1875-14.300781 6.300781h-106.398438c-5.394531-.113281-10.53125-2.339843-14.300781-6.199218l-11.199219-11.601563c-1.851562-1.964843-4.402343-3.113281-7.101562-3.199219h-117.199219zm426 52.199219c-.007812 5.285156-2.121094 10.347656-5.878906 14.066406-3.753906 3.71875-8.835938 5.78125-14.121094 5.734375h-406c-5.277344.03125-10.351562-2.039062-14.105469-5.753906-3.75-3.714844-5.871093-8.765625-5.894531-14.046875v-25.199219h133.101562l8.199219 8.699219c7.5 7.707031 17.746094 12.128906 28.5 12.300781h106.300781c10.757813-.132812 21.019532-4.558594 28.5-12.300781l8.199219-8.699219h133.199219zm0 0"/></svg>