<svg height="492pt" viewBox="-89 0 492 492.11459" width="492pt" xmlns="http://www.w3.org/2000/svg"><path d="m159.21875.015625c-85.5-1.199219-156.800781 71.800781-159.101562 162.597656-1.300782 50.101563 18.5 97.800781 54.101562 130.800781 6.390625 6.128907 8.824219 15.3125 6.296875 23.800782l9.601563 2.699218-9.601563-2.597656-8 28c-2.589844 9.054688-.769531 18.800782 4.914063 26.3125 5.683593 7.515625 14.566406 11.914063 23.988281 11.886719h151.597656c9.421875-.003906 18.296875-4.40625 24-11.902344 5.691406-7.503906 7.503906-17.25 4.902344-26.296875l-7.902344-27.800781v-.199219l-9.796875 2.796875 9.597656-2.898437c-2.539062-8.503906-.0625-17.714844 6.402344-23.800782 34.398438-31.800781 54.199219-77.800781 54.199219-126.199218 0-44.101563-16-85.699219-45.199219-117.199219-29.300781-31.699219-68.402344-49.5-110-50zm87.398438 278.699219c-11.878907 11.246094-16.507813 28.171875-12 43.898437l.101562.203125v.097656l8 27.902344c.878906 3.019532.289062 6.28125-1.601562 8.796875-1.886719 2.519531-4.851563 4-8 4h-151.601563c-3.144531.003907-6.109375-1.480469-8-4-1.910156-2.507812-2.503906-5.777343-1.597656-8.796875l8-27.902344v-.199218c4.5-15.800782-.199219-33.101563-12-44-31.402344-29.101563-48.800781-71.199219-47.699219-115.601563 2-79.296875 63.296875-143.199219 137.097656-143.199219h1.699219c36.101563.5 70 16 95.5 43.5 25.703125 27.800782 39.902344 64.601563 39.902344 103.699219-.101563 42.902344-17.5 83.5-47.800781 111.601563zm0 0"/><path d="m230.015625 403.113281h-145.597656c-5.523438 0-10 4.476563-10 10 0 5.523438 4.476562 10 10 10h145.699219c5.523437-.027343 9.976562-4.527343 9.949218-10.046875-.027344-5.523437-4.527344-9.980468-10.050781-9.953125zm0 0"/><path d="m230.015625 437.113281h-145.597656c-5.523438 0-10 4.476563-10 10 0 5.523438 4.476562 10 10 10h145.699219c5.523437-.027343 9.976562-4.527343 9.949218-10.046875-.027344-5.523437-4.527344-9.980468-10.050781-9.953125zm0 0"/><path d="m210.71875 472.113281h-107c-5.523438 0-10 4.476563-10 10 0 5.523438 4.476562 10 10 10h107c5.523438 0 10-4.476562 10-10 0-5.523437-4.476562-10-10-10zm0 0"/></svg>