<svg height="496pt" viewBox="-105 0 496 496.1" width="496pt" xmlns="http://www.w3.org/2000/svg"><path d="m246.550781 128h-50.5v-108h20.5c5.523438 0 10-4.476562 10-10s-4.476562-10-10-10h-147c-5.523437 0-10 4.476562-10 10s4.476563 10 10 10h20.5v108h-50.5c-10.535156-.027344-20.644531 4.167969-28.066406 11.644531-7.421875 7.480469-11.5390625 17.621094-11.4335938 28.15625v288c0 22.097657 17.4999998 40.300781 39.4999998 40.300781h207c22.101563 0 39.5-18.203124 39.5-40.300781v-288c.09375-10.53125-4.03125-20.664062-11.449219-28.136719-7.417968-7.476562-17.519531-11.675781-28.050781-11.664062zm-136.5-108h66v108h-66zm96 300h-126v-30h126zm-126 20h126v30h-126zm0 50h126v86h-126zm186 65.699219c0 11-8.5 20.300781-19.5 20.300781h-20.5v-195.699219c0-5.5-4-10.300781-9.5-10.300781h-147c-5.5 0-9.5 4.699219-9.5 10.300781v195.699219h-20.5c-11 0-19.5-9.199219-19.5-20.300781v-288c-.089843-5.226563 1.925781-10.269531 5.59375-13.992188 3.667969-3.726562 8.679688-5.816406 13.90625-5.808593h207c5.234375-.027344 10.257813 2.058593 13.925781 5.789062 3.671876 3.726562 5.683594 8.78125 5.574219 14.011719zm0 0"/><path d="m176.550781 210h-67c-5.523437 0-10 4.476562-10 10s4.476563 10 10 10h67c5.523438 0 10-4.476562 10-10s-4.476562-10-10-10zm0 0"/></svg>