<svg height="487pt" viewBox="0 -77 487.00005 487" width="487pt" xmlns="http://www.w3.org/2000/svg"><path d="m487 30c.011719-7.960938-3.148438-15.597656-8.773438-21.226562-5.628906-5.625-13.265624-8.7851568-21.226562-8.773438h-427c-7.960938-.0117188-15.597656 3.148438-21.226562 8.773438-5.625 5.628906-8.7851568 13.265624-8.773438 21.226562v273c-.0117188 7.960938 3.148438 15.597656 8.773438 21.226562 5.628906 5.625 13.265624 8.785157 21.226562 8.773438h427c7.960938.011719 15.597656-3.148438 21.226562-8.773438 5.625-5.628906 8.785157-13.265624 8.773438-21.226562zm-19-.5v62.5h-100v-72h89.601562c5.5 0 10.398438 4 10.398438 9.5zm-100 82.5h100v110h-100zm-348 190.5v-273c0-5.5 4.898438-9.5 10.398438-9.5h317.601562v292h-317.601562c-5.5 0-10.398438-4-10.398438-9.5zm437.601562 9.5h-89.601562v-70h100v60.5c0 5.5-4.898438 9.5-10.398438 9.5zm0 0"/><path d="m327 50c-.015625-5.515625-4.484375-9.984375-10-10h-267c-5.515625.015625-9.984375 4.484375-10 10v233c.015625 5.515625 4.484375 9.984375 10 10h267c5.515625-.015625 9.984375-4.484375 10-10zm-19 222h-248v-212h248zm0 0"/><path d="m401 157h35c5.523438 0 10-4.476562 10-10s-4.476562-10-10-10h-35c-5.523438 0-10 4.476562-10 10s4.476562 10 10 10zm0 0"/><path d="m436 177h-35c-5.523438 0-10 4.476562-10 10s4.476562 10 10 10h35c5.523438 0 10-4.476562 10-10s-4.476562-10-10-10zm0 0"/></svg>