<svg height="455pt" viewBox="-69 0 455 455.9" width="455pt" xmlns="http://www.w3.org/2000/svg"><path d="m276.648438 109h-22.199219v-25.5c0-17.199219-13.597657-31.5-30.800781-31.5h-16.199219v-20.5c0-17.199219-13.597657-31.5-30.800781-31.5h-83.699219c-17.339844.140625-31.359375 14.160156-31.5 31.5v20.5h-15.5c-17.339844.140625-31.359375 14.160156-31.5 31.5v36c0 .398438.199219.800781.199219 1.199219l.101562.101562 24.300781 177.597657-26.101562 30.703124c-8.070313 9.449219-12.5 21.46875-12.5 33.898438v82.601562c-.007813 5.574219 4.425781 10.140626 10 10.296876h248.601562c5.648438-.097657 10.203125-4.652344 10.300781-10.296876v-82.601562c-.054687-12.453125-4.558593-24.476562-12.703124-33.898438l-26.199219-30.902343 23-169.199219h23.101562c12 0 21.800781 10.199219 21.800781 22.199219v88.5c0 5.523437 4.476563 10 10 10 5.519532 0 10-4.476563 10-10v-88.5c.097657-23-18.703124-42.199219-41.703124-42.199219zm-195.199219-77.5c.109375-6.304688 5.195312-11.394531 11.5-11.5h83.699219c6.203124 0 10.800781 5.300781 10.800781 11.5v20.5h-106zm-35.5 40.5h177.699219c6.203124 0 10.800781 5.300781 10.800781 11.5v25.5h-200v-25.5c.109375-6.304688 5.195312-11.394531 11.5-11.5zm191.5 266h-205.300781l22.101562-27h161.101562zm12 98h-229v-72.898438c-.027344-1.714843.140625-3.425781.5-5.101562h227.699219c.484374 1.660156.753906 3.371094.800781 5.101562zm-38.199219-145h-152.898438l-22.101562-162h197.199219zm0 0"/><path d="m134.75 363.398438c-18.613281 0-33.699219 15.089843-33.699219 33.703124 0 18.609376 15.085938 33.699219 33.699219 33.699219s33.699219-15.089843 33.699219-33.699219c-.007813-18.609374-15.089844-33.691406-33.699219-33.703124zm0 47.402343c-7.566406 0-13.699219-6.132812-13.699219-13.699219 0-7.566406 6.132813-13.703124 13.699219-13.703124s13.699219 6.136718 13.699219 13.703124c-.011719 7.558594-6.136719 13.6875-13.699219 13.699219zm0 0"/></svg>