<svg height="457pt" viewBox="0 -25 457.90054 457" width="457pt" xmlns="http://www.w3.org/2000/svg"><path d="m427.601562.449219h-397.203124c-16.5 0-30.398438 13.300781-30.398438 29.800781v283c0 16.5 13.898438 30.199219 30.398438 30.199219h124.703124l-13.703124 43h-38.898438c-5.523438 0-10 4.476562-10 10 0 5.523437 4.476562 10 10 10h252.398438c5.523437 0 10-4.476563 10-10 0-5.523438-4.476563-10-10-10h-38.898438l-13.699219-43h125.199219c16.5 0 30.398438-13.699219 30.398438-30.199219v-283c.101562-16.5-13.796876-29.800781-30.296876-29.800781zm-132.5 386h-132.703124l13.703124-43h105.296876zm141.898438-73c-.015625 5.515625-4.484375 9.984375-10 10h-397c-5.515625-.015625-9.984375-4.484375-10-10v-283c.015625-5.515625 4.484375-9.984375 10-10h397c5.515625.015625 9.984375 4.484375 10 10zm0 0"/><path d="m417 50.449219c-.015625-5.515625-4.484375-9.984375-10-10h-357c-5.515625.015625-9.984375 4.484375-10 10v243c.015625 5.515625 4.484375 9.984375 10 10h357c5.515625-.015625 9.984375-4.484375 10-10zm-19 233h-338v-223h338zm0 0"/></svg>