<svg height="477pt" viewBox="0 -67 477.00005 477" width="477pt" xmlns="http://www.w3.org/2000/svg"><path d="m477 30c.011719-7.960938-3.148438-15.597656-8.773438-21.226562-5.628906-5.625-13.265624-8.7851568-21.226562-8.773438h-417c-7.960938-.0117188-15.597656 3.148438-21.226562 8.773438-5.625 5.628906-8.7851568 13.265624-8.773438 21.226562v283c-.0117188 7.960938 3.148438 15.597656 8.773438 21.226562 5.628906 5.625 13.265624 8.785157 21.226562 8.773438h417c7.960938.011719 15.597656-3.148438 21.226562-8.773438 5.625-5.628906 8.785157-13.265624 8.773438-21.226562zm-20 283c-.015625 5.515625-4.484375 9.984375-10 10h-417c-5.515625-.015625-9.984375-4.484375-10-10v-283c.015625-5.515625 4.484375-9.984375 10-10h417c5.515625.015625 9.984375 4.484375 10 10zm0 0"/><path d="m404 64.398438c-19.714844 0-35.699219 15.984374-35.699219 35.703124 0 19.714844 15.984375 35.699219 35.699219 35.699219s35.699219-15.984375 35.699219-35.699219c-.011719-19.714843-15.988281-35.691406-35.699219-35.703124zm0 51.5c-8.671875 0-15.699219-7.027344-15.699219-15.699219s7.027344-15.699219 15.699219-15.699219 15.699219 7.027344 15.699219 15.699219c-.015625 8.664062-7.035157 15.6875-15.699219 15.699219zm0 0"/><path d="m429 178h-50c-5.523438 0-10 4.476562-10 10s4.476562 10 10 10h50c5.523438 0 10-4.476562 10-10s-4.476562-10-10-10zm0 0"/><path d="m429 218h-50c-5.523438 0-10 4.476562-10 10s4.476562 10 10 10h50c5.523438 0 10-4.476562 10-10s-4.476562-10-10-10zm0 0"/><path d="m429 258h-50c-5.523438 0-10 4.476562-10 10s4.476562 10 10 10h50c5.523438 0 10-4.476562 10-10s-4.476562-10-10-10zm0 0"/><path d="m337 60c-.03125-11.03125-8.96875-19.96875-20-20h-257c-11.03125.03125-19.96875 8.96875-20 20v223c.03125 11.03125 8.96875 19.96875 20 20h257c11.03125-.03125 19.96875-8.96875 20-20zm-19 222h-257.601562v-222h257.601562zm0 0"/></svg>