<svg height="489pt" viewBox="-55 0 489 489.00005" width="489pt" xmlns="http://www.w3.org/2000/svg"><path d="m378 30c.011719-7.960938-3.148438-15.597656-8.773438-21.226562-5.628906-5.625-13.265624-8.7851568-21.226562-8.773438h-318c-7.960938-.0117188-15.597656 3.148438-21.226562 8.773438-5.625 5.628906-8.7851568 13.265624-8.773438 21.226562v429c-.0117188 7.960938 3.148438 15.597656 8.773438 21.226562 5.628906 5.625 13.265624 8.785157 21.226562 8.773438h318c7.960938.011719 15.597656-3.148438 21.226562-8.773438 5.625-5.628906 8.785157-13.265624 8.773438-21.226562zm-348.101562-10h318.300781c2.597656-.078125 5.117187.898438 6.980469 2.707031 1.867187 1.808594 2.917968 4.292969 2.921874 6.894531v78.398438h-338.101562v-78.398438c-.015625-2.605468 1.03125-5.101562 2.902344-6.914062 1.867187-1.8125 4.394531-2.785156 6.996094-2.6875zm328.101562 108v300h-338v-300zm-9.898438 340h-318.203124c-2.59375.078125-5.113282-.898438-6.980469-2.707031-1.863281-1.808594-2.917969-4.292969-2.917969-6.894531v-10.398438h338v10.398438c.015625 2.605468-1.03125 5.101562-2.902344 6.914062-1.867187 1.8125-4.394531 2.785156-6.996094 2.6875zm0 0"/><path d="m338 158c-.015625-5.515625-4.484375-9.984375-10-10h-278c-5.515625.015625-9.984375 4.484375-10 10v240c.015625 5.515625 4.484375 9.984375 10 10h278c5.515625-.015625 9.984375-4.484375 10-10zm-278 10h258v220h-258zm0 0"/><path d="m230.5 193h-83c-5.523438 0-10 4.476562-10 10s4.476562 10 10 10h83c5.523438 0 10-4.476562 10-10s-4.476562-10-10-10zm0 0"/><path d="m223 88c5.515625-.015625 9.984375-4.484375 10-10v-28c0-5.523438-4.476562-10-10-10s-10 4.476562-10 10v28c.015625 5.515625 4.484375 9.984375 10 10zm0 0"/><path d="m263 88c5.515625-.015625 9.984375-4.484375 10-10v-28c0-5.523438-4.476562-10-10-10s-10 4.476562-10 10v28c.015625 5.515625 4.484375 9.984375 10 10zm0 0"/><path d="m303 88c5.515625-.015625 9.984375-4.484375 10-10v-28c0-5.523438-4.476562-10-10-10s-10 4.476562-10 10v28c.015625 5.515625 4.484375 9.984375 10 10zm0 0"/><path d="m92.699219 92.601562c15.464843 0 28-12.539062 28-28 0-15.464843-12.535157-28-28-28-15.464844 0-28 12.535157-28 28 .046875 15.445313 12.554687 27.953126 28 28zm0-36c4.417969 0 8 3.582032 8 8 0 4.417969-3.582031 8-8 8s-8-3.582031-8-8c.015625-4.414062 3.589843-7.988281 8-8zm0 0"/></svg>