<svg height="480pt" viewBox="-95 0 480 480.00005" width="480pt" xmlns="http://www.w3.org/2000/svg"><path d="m289 30c.011719-7.960938-3.148438-15.597656-8.773438-21.226562-5.628906-5.625-13.265624-8.7851568-21.226562-8.773438h-229c-7.960938-.0117188-15.597656 3.148438-21.226562 8.773438-5.625 5.628906-8.7851568 13.265624-8.773438 21.226562v420c-.0117188 7.960938 3.148438 15.597656 8.773438 21.226562 5.628906 5.625 13.265624 8.785157 21.226562 8.773438h229c7.960938.011719 15.597656-3.148438 21.226562-8.773438 5.625-5.628906 8.785157-13.265624 8.773438-21.226562zm-258.699219-10h229.398438c5.574219-.007812 10.144531 4.425781 10.300781 10v33h-250v-33c.15625-5.574219 4.726562-10.007812 10.300781-10zm239.699219 63v299h-250v-299zm-10.300781 377h-229.398438c-5.574219.007812-10.144531-4.425781-10.300781-10v-48h250v48c-.15625 5.574219-4.726562 10.007812-10.300781 10zm0 0"/><path d="m115.800781 55h58.398438c5.523437 0 10-4.476562 10-10s-4.476563-10-10-10h-58.398438c-5.523437 0-10 4.476562-10 10s4.476563 10 10 10zm0 0"/><path d="m194.199219 417h-98.398438c-5.523437 0-10 4.476562-10 10s4.476563 10 10 10h98.398438c5.523437 0 10-4.476562 10-10s-4.476563-10-10-10zm0 0"/></svg>