<svg height="480pt" viewBox="0 -69 480 480" width="480pt" xmlns="http://www.w3.org/2000/svg"><path d="m439.601562 0h-399.203124c-22.097657 0-40.398438 17.699219-40.398438 39.699219v171.199219c0 22.101562 18.300781 40.101562 40.398438 40.101562h74.601562v81.300781c.019531 2.617188 1.089844 5.121094 2.96875 6.941407 1.878906 1.824218 4.414062 2.816406 7.03125 2.757812h230c2.617188.058594 5.152344-.933594 7.03125-2.757812 1.878906-1.820313 2.949219-4.324219 2.96875-6.941407v-81.300781h74.601562c22.097657 0 40.398438-18.101562 40.398438-40.101562v-171.199219c0-22-18.300781-39.699219-40.398438-39.699219zm-304.601562 322v-150h210v150zm325-111.101562c0 11-9.398438 20.101562-20.398438 20.101562h-74.601562v-59h51.199219c5.523437 0 10-4.476562 10-10s-4.476563-10-10-10h-352.398438c-5.523437 0-10 4.476562-10 10s4.476563 10 10 10h51.199219v59h-74.601562c-11 0-20.398438-9.101562-20.398438-20.101562v-171.199219c0-11 9.398438-19.699219 20.398438-19.699219h399.203124c11 0 20.398438 8.699219 20.398438 19.699219zm0 0"/><path d="m358 51.101562c-5.515625.015626-9.984375 4.480469-10 10v32.597657c0 5.523437 4.476562 10 10 10s10-4.476563 10-10v-32.597657c-.015625-5.519531-4.484375-9.984374-10-10zm0 0"/><path d="m318 51.101562c-5.515625.015626-9.984375 4.480469-10 10v32.597657c0 5.523437 4.476562 10 10 10s10-4.476563 10-10v-32.597657c-.015625-5.519531-4.484375-9.984374-10-10zm0 0"/><path d="m398 51.101562c-5.515625.015626-9.984375 4.480469-10 10v32.597657c0 5.523437 4.476562 10 10 10s10-4.476563 10-10v-32.597657c-.015625-5.519531-4.484375-9.984374-10-10zm0 0"/></svg>