<svg height="458pt" viewBox="0 -85 458.00004 458" width="458pt" xmlns="http://www.w3.org/2000/svg"><path d="m388.199219 87.796875h-62.097657c-5.03125-49.851563-46.996093-87.796875-97.101562-87.796875s-92.070312 37.945312-97.101562 87.796875h-62.097657c-18.507812-.039063-36.269531 7.285156-49.367187 20.363281-13.09375 13.078125-20.4453128 30.828125-20.433594 49.335938v27.601562c-.0117188 18.503906 7.339844 36.257813 20.433594 49.332032 13.097656 13.078124 30.859375 20.40625 49.367187 20.367187h7.199219v23.097656c.011719 2.640625 1.070312 5.167969 2.949219 7.023438 1.875 1.859375 4.410156 2.894531 7.050781 2.878906h74c2.644531.03125 5.191406-1 7.070312-2.859375 1.878907-1.859375 2.933594-4.398438 2.929688-7.042969v-23.097656h116v23.097656c.011719 2.640625 1.070312 5.167969 2.949219 7.023438 1.875 1.859375 4.410156 2.894531 7.050781 2.878906h74c2.644531.03125 5.191406-1 7.070312-2.859375 1.878907-1.859375 2.933594-4.398438 2.929688-7.042969v-23.097656h7.199219c18.507812.039063 36.269531-7.289063 49.367187-20.367187 13.09375-13.074219 20.445313-30.828126 20.433594-49.332032v-27.601562c.011719-18.507813-7.339844-36.257813-20.433594-49.335938-13.097656-13.078125-30.859375-20.402344-49.367187-20.363281zm-159.199219-68.101563c42.855469 0 77.601562 34.742188 77.601562 77.601563 0 42.855469-34.746093 77.597656-77.601562 77.597656s-77.601562-34.742187-77.601562-77.597656c.042968-42.839844 34.761718-77.5625 77.601562-77.601563zm-78 248.101563h-54v-13h54zm210 0h-54v-13h54zm77-82.699219c.027344 13.207032-5.210938 25.878906-14.558594 35.207032-9.351562 9.332031-22.035156 14.546874-35.242187 14.492187h-110.199219v-21c0-5.523437-4.476562-10-10-10s-10 4.476563-10 10v21h-20v-21c0-5.523437-4.476562-10-10-10s-10 4.476563-10 10v21h-20v-21c0-5.523437-4.476562-10-10-10s-10 4.476563-10 10v21h-108.199219c-13.207031.054687-25.890625-5.160156-35.242187-14.492187-9.347656-9.328126-14.585938-22-14.558594-35.207032v-27.601562c-.027344-13.207032 5.210938-25.882813 14.558594-35.210938 9.351562-9.328125 22.035156-14.542968 35.242187-14.488281h62.199219c5.238281 49.683594 47.136719 87.402344 97.101562 87.402344 49.960938 0 91.859376-37.71875 97.097657-87.402344h62.199219c13.207031-.054687 25.894531 5.160156 35.242187 14.488281s14.589844 22.003906 14.558594 35.210938v27.601562zm0 0"/><path d="m229 153.097656c30.871094 0 55.898438-25.027344 55.898438-55.902344 0-30.871093-25.027344-55.898437-55.898438-55.898437s-55.898438 25.027344-55.898438 55.898437c.050782 30.851563 25.046876 55.847657 55.898438 55.902344zm0-91.703125c19.828125 0 35.898438 16.074219 35.898438 35.902344 0 19.824219-16.070313 35.898437-35.898438 35.898437s-35.898438-16.074218-35.898438-35.898437c.019532-19.820313 16.078126-35.882813 35.898438-35.902344zm0 0"/></svg>