<svg height="477pt" viewBox="0 -31 477.90054 477" width="477pt" xmlns="http://www.w3.org/2000/svg"><path d="m447.601562 91.648438h-318.800781l162.5-72.097657c3.285157-1.425781 5.550781-4.503906 5.9375-8.066406.386719-3.558594-1.167969-7.054687-4.070312-9.148437-2.90625-2.097657-6.710938-2.472657-9.96875-.984376l-203.597657 90.296876h-49.203124c-16.5 0-30.398438 13.703124-30.398438 30.203124v263c0 16.5 13.898438 29.796876 30.398438 29.796876h417.101562c16.5 0 30.398438-13.296876 30.398438-29.796876v-263c.101562-16.5-13.796876-30.203124-30.296876-30.203124zm10.398438 293.203124c0 5.5-4.898438 9.796876-10.398438 9.796876h-417.203124c-5.5 0-10.398438-4.296876-10.398438-9.796876v-263c.1875-5.632812 4.765625-10.125 10.398438-10.203124h417c5.636718.078124 10.214843 4.570312 10.402343 10.203124v263zm0 0"/><path d="m159 150.949219c-56.554688 0-102.398438 45.847656-102.398438 102.402343 0 56.550782 45.84375 102.398438 102.398438 102.398438s102.398438-45.847656 102.398438-102.398438c-.035157-56.539062-45.859376-102.363281-102.398438-102.402343zm0 184.800781c-45.507812 0-82.398438-36.890625-82.398438-82.398438 0-45.511718 36.890626-82.402343 82.398438-82.402343s82.398438 36.890625 82.398438 82.402343c-.074219 45.476563-36.921876 82.320313-82.398438 82.398438zm0 0"/><path d="m159 190.148438c-34.90625 0-63.199219 28.296874-63.199219 63.203124 0 34.902344 28.292969 63.199219 63.199219 63.199219s63.199219-28.296875 63.199219-63.199219c-.039063-34.890624-28.3125-63.164062-63.199219-63.203124zm0 106.300781c-23.859375 0-43.199219-19.339844-43.199219-43.199219s19.339844-43.199219 43.199219-43.199219 43.199219 19.339844 43.199219 43.199219c-.039063 23.839844-19.359375 43.160156-43.199219 43.199219zm0 0"/><path d="m364 227.050781c19.714844 0 35.699219-15.984375 35.699219-35.699219 0-19.71875-15.984375-35.703124-35.699219-35.703124s-35.699219 15.984374-35.699219 35.703124c.011719 19.710938 15.988281 35.6875 35.699219 35.699219zm0-51.5c8.671875 0 15.699219 7.027344 15.699219 15.699219s-7.027344 15.699219-15.699219 15.699219-15.699219-7.027344-15.699219-15.699219c.015625-8.664062 7.035157-15.683594 15.699219-15.699219zm0 0"/><path d="m399 268.648438h-70c-5.523438 0-10 4.480468-10 10 0 5.523437 4.476562 10 10 10h70c5.523438 0 10-4.476563 10-10 0-5.519532-4.476562-10-10-10zm0 0"/><path d="m399 298.648438h-70c-5.523438 0-10 4.480468-10 10 0 5.523437 4.476562 10 10 10h70c5.523438 0 10-4.476563 10-10 0-5.519532-4.476562-10-10-10zm0 0"/><path d="m399 328.648438h-70c-5.523438 0-10 4.480468-10 10 0 5.523437 4.476562 10 10 10h70c5.523438 0 10-4.476563 10-10 0-5.519532-4.476562-10-10-10zm0 0"/></svg>