<svg height="457pt" viewBox="0 -28 457.90054 457" width="457pt" xmlns="http://www.w3.org/2000/svg"><path d="m427.601562 77.449219h-50.601562v-36.699219c0-22.101562-17.398438-40.300781-39.5-40.300781h-217c-22.101562 0-40.5 18.199219-40.5 40.300781v36.699219h-49.601562c-16.5 0-30.398438 13.199219-30.398438 29.800781v263c0 16.5 13.898438 30.300781 30.398438 30.300781h397.101562c16.699219-.121093 30.222656-13.601562 30.398438-30.300781v-263c.101562-16.601562-13.796876-29.800781-30.296876-29.800781zm-327.601562-36.699219c0-11 9.5-20.300781 20.5-20.300781h217c11 0 19.5 9.199219 19.5 20.300781v36.699219h-257zm337 329.699219c-.015625 5.515625-4.484375 9.984375-10 10h-397c-5.515625-.015625-9.984375-4.484375-10-10v-263c.015625-5.515625 4.484375-9.984375 10-10h397c5.515625.015625 9.984375 4.484375 10 10zm0 0"/><path d="m399 115.449219h-340c-5.515625.015625-9.984375 4.484375-10 10v50c.015625 5.515625 4.484375 9.984375 10 10h340c5.515625-.015625 9.984375-4.484375 10-10v-50c-.015625-5.515625-4.484375-9.984375-10-10zm-330 20h90v30h-90zm320 30h-210v-30h210zm0 0"/><path d="m133.300781 195.351562c-46.0625 0-83.402343 37.339844-83.402343 83.398438 0 46.0625 37.339843 83.398438 83.402343 83.398438 46.058594 0 83.398438-37.335938 83.398438-83.398438-.042969-46.042969-37.355469-83.355469-83.398438-83.398438zm0 146.699219c-35.015625 0-63.402343-28.386719-63.402343-63.402343 0-35.011719 28.386718-63.398438 63.402343-63.398438s63.398438 28.386719 63.398438 63.398438c-.046875 34.996093-28.402344 63.355468-63.398438 63.402343zm0 0"/><path d="m133.300781 235.75c-23.695312 0-42.902343 19.207031-42.902343 42.898438 0 23.695312 19.207031 42.902343 42.902343 42.902343 23.691407 0 42.898438-19.207031 42.898438-42.902343-.03125-23.679688-19.21875-42.867188-42.898438-42.898438zm0 65.898438c-12.648437 0-22.902343-10.25-22.902343-22.898438s10.253906-22.898438 22.902343-22.898438c12.648438 0 22.898438 10.25 22.898438 22.898438s-10.25 22.898438-22.898438 22.898438zm0 0"/><path d="m342 245.050781v-11.601562c0-5.523438-4.476562-10-10-10s-10 4.476562-10 10v12.402343c-16.308594 5.621094-26.027344 22.347657-22.839844 39.296876 3.191406 16.953124 18.324219 29.003906 35.558594 28.3125 17.238281-.6875 31.359375-13.910157 33.1875-31.0625 1.824219-17.148438-9.203125-33.046876-25.90625-37.347657zm-8.699219 48.398438c-8.175781 0-14.800781-6.625-14.800781-14.800781 0-8.171876 6.625-14.796876 14.800781-14.796876 8.171875 0 14.800781 6.625 14.800781 14.796876-.019531 8.167968-6.636718 14.785156-14.800781 14.800781zm0 0"/></svg>