<svg height="462pt" viewBox="-126 0 462 462" width="462pt" xmlns="http://www.w3.org/2000/svg"><path d="m209 40c.007812-22.09375-17.90625-40.0078125-40-40h-129c-22.09375-.0078125-40.0078125 17.90625-40 40v382c-.0078125 22.09375 17.90625 40.007812 40 40h129c22.09375.007812 40.007812-17.90625 40-40zm-168.5-20h129c11 0 19.5 9 19.5 20v282h-169v-282c0-11 9.5-20 20.5-20zm129 422h-129c-11 0-20.5-9-20.5-20v-80h169v80c0 11-8.5 20-19.5 20zm0 0"/><path d="m92 159h26c5.523438 0 10-4.476562 10-10s-4.476562-10-10-10h-26c-5.523438 0-10 4.476562-10 10s4.476562 10 10 10zm0 0"/><path d="m38 159h26c5.523438 0 10-4.476562 10-10s-4.476562-10-10-10h-26c-5.523438 0-10 4.476562-10 10s4.476562 10 10 10zm0 0"/><path d="m146 159h26c5.523438 0 10-4.476562 10-10s-4.476562-10-10-10h-26c-5.523438 0-10 4.476562-10 10s4.476562 10 10 10zm0 0"/><path d="m92 199h26c5.523438 0 10-4.476562 10-10s-4.476562-10-10-10h-26c-5.523438 0-10 4.476562-10 10s4.476562 10 10 10zm0 0"/><path d="m38 199h26c5.523438 0 10-4.476562 10-10s-4.476562-10-10-10h-26c-5.523438 0-10 4.476562-10 10s4.476562 10 10 10zm0 0"/><path d="m146 199h26c5.523438 0 10-4.476562 10-10s-4.476562-10-10-10h-26c-5.523438 0-10 4.476562-10 10s4.476562 10 10 10zm0 0"/><path d="m92 239h26c5.523438 0 10-4.476562 10-10s-4.476562-10-10-10h-26c-5.523438 0-10 4.476562-10 10s4.476562 10 10 10zm0 0"/><path d="m38 239h26c5.523438 0 10-4.476562 10-10s-4.476562-10-10-10h-26c-5.523438 0-10 4.476562-10 10s4.476562 10 10 10zm0 0"/><path d="m146 239h26c5.523438 0 10-4.476562 10-10s-4.476562-10-10-10h-26c-5.523438 0-10 4.476562-10 10s4.476562 10 10 10zm0 0"/><path d="m92 279h26c5.523438 0 10-4.476562 10-10s-4.476562-10-10-10h-26c-5.523438 0-10 4.476562-10 10s4.476562 10 10 10zm0 0"/><path d="m38 279h26c5.523438 0 10-4.476562 10-10s-4.476562-10-10-10h-26c-5.523438 0-10 4.476562-10 10s4.476562 10 10 10zm0 0"/><path d="m146 279h26c5.523438 0 10-4.476562 10-10s-4.476562-10-10-10h-26c-5.523438 0-10 4.476562-10 10s4.476562 10 10 10zm0 0"/><path d="m92 119h26c5.523438 0 10-4.476562 10-10s-4.476562-10-10-10h-26c-5.523438 0-10 4.476562-10 10s4.476562 10 10 10zm0 0"/><path d="m38 119h26c5.523438 0 10-4.476562 10-10s-4.476562-10-10-10h-26c-5.523438 0-10 4.476562-10 10s4.476562 10 10 10zm0 0"/><path d="m146 119h26c5.523438 0 10-4.476562 10-10s-4.476562-10-10-10h-26c-5.523438 0-10 4.476562-10 10s4.476562 10 10 10zm0 0"/><path d="m38 79h26c5.523438 0 10-4.476562 10-10s-4.476562-10-10-10h-26c-5.523438 0-10 4.476562-10 10s4.476562 10 10 10zm0 0"/></svg>