<svg height="472pt" viewBox="0 -38 472 472" width="472pt" xmlns="http://www.w3.org/2000/svg"><path d="m432 209.226562h-296v-145.597656c15.277344-4.925781 24.695312-20.234375 22.203125-36.089844-2.492187-15.855468-16.152344-27.539062-32.203125-27.539062s-29.710938 11.683594-32.203125 27.539062c-2.492187 15.855469 6.925781 31.164063 22.203125 36.089844v145.597656h-76c-10.550781-.097656-20.707031 4.015626-28.214844 11.429688-7.511718 7.417969-11.7499998 17.519531-11.785156 28.070312v137.703126c.015625 2.628906 1.082031 5.140624 2.957031 6.980468 1.878907 1.839844 4.414063 2.855469 7.042969 2.816406h452c2.632812.054688 5.179688-.953124 7.058594-2.796874 1.882812-1.84375 2.941406-4.367188 2.941406-7v-137.703126c0-22-18-39.5-40-39.5zm-306-189.199218c6.957031 0 12.601562 5.640625 12.601562 12.601562 0 6.957032-5.644531 12.597656-12.601562 12.597656s-12.601562-5.640624-12.601562-12.597656c.007812-6.957031 5.644531-12.59375 12.601562-12.601562zm326 356.199218h-432v-20h432zm-432-40v-87.5c0-11 9-19.5 20-19.5h392c11 0 20 8.5 20 19.5v87.5zm0 0"/><path d="m236 246.527344c-19.882812 0-36 16.117187-36 36 0 19.882812 16.117188 36 36 36s36-16.117188 36-36c-.023438-19.871094-16.128906-35.976563-36-36zm0 52.101562c-8.835938 0-16-7.164062-16-16 0-8.835937 7.164062-16 16-16s16 7.164063 16 16c-.027344 8.824219-7.175781 15.972656-16 16zm0 0"/><path d="m352 257.226562c-5.515625.019532-9.984375 4.484376-10 10v30c0 5.523438 4.476562 10 10 10s10-4.476562 10-10v-30c-.015625-5.515624-4.484375-9.980468-10-10zm0 0"/><path d="m382 257.226562c-5.515625.019532-9.984375 4.484376-10 10v30c0 5.523438 4.476562 10 10 10s10-4.476562 10-10v-30c-.015625-5.515624-4.484375-9.980468-10-10zm0 0"/><path d="m412 257.226562c-5.515625.019532-9.984375 4.484376-10 10v30c0 5.523438 4.476562 10 10 10s10-4.476562 10-10v-30c-.015625-5.515624-4.484375-9.980468-10-10zm0 0"/><path d="m60 257.226562c-5.515625.019532-9.984375 4.484376-10 10v30c0 5.523438 4.476562 10 10 10s10-4.476562 10-10v-30c-.015625-5.515624-4.484375-9.980468-10-10zm0 0"/><path d="m90 257.226562c-5.515625.019532-9.984375 4.484376-10 10v30c0 5.523438 4.476562 10 10 10s10-4.476562 10-10v-30c-.015625-5.515624-4.484375-9.980468-10-10zm0 0"/><path d="m120 257.226562c-5.515625.019532-9.984375 4.484376-10 10v30c0 5.523438 4.476562 10 10 10s10-4.476562 10-10v-30c-.015625-5.515624-4.484375-9.980468-10-10zm0 0"/></svg>