<svg height="452pt" viewBox="0 -35 452 452" width="452pt" xmlns="http://www.w3.org/2000/svg"><path d="m411.898438 0h-371.796876c-22 0-40.101562 18.398438-40.101562 40.398438v268.300781c.0546875 22.15625 17.945312 40.136719 40.101562 40.300781h19.898438v22.601562c0 5.5 4.5 10.398438 10 10.398438h76c5.5 0 10-4.898438 10-10.398438v-22.601562h150v22.601562c0 5.5 4.5 10.398438 10 10.398438h76c5.5 0 10-4.898438 10-10.398438v-22.601562h9.898438c22.171874-.128906 40.085937-18.128906 40.101562-40.300781v-268.300781c0-22-18.101562-40.398438-40.101562-40.398438zm-275.898438 362h-56v-13h56zm246 0h-56v-13h56zm50-54c-.03125 11.03125-8.96875 19.96875-20 20h-372c-11.03125-.03125-19.96875-8.96875-20-20v-268c.03125-11.03125 8.96875-19.96875 20-20h372c11.03125.03125 19.96875 8.96875 20 20zm0 0"/><path d="m408 55c-.015625-5.515625-4.484375-9.984375-10-10h-343c-5.515625.015625-9.984375 4.484375-10 10v239c.015625 5.515625 4.484375 9.984375 10 10h343c5.515625-.015625 9.984375-4.484375 10-10zm-21 229h-322v-219h322zm0 0"/><path d="m221.199219 247.101562c36.023437-.027343 66.582031-26.457031 71.800781-62.101562h49c5.523438 0 10-4.476562 10-10s-4.476562-10-10-10h-48.898438c-5.128906-38.460938-39.625-66.074219-78.277343-62.652344-38.652344 3.417969-67.761719 36.660156-66.054688 75.425782 1.707031 38.765624 33.628907 69.316406 72.429688 69.328124zm0-125.101562c25.304687.054688 46.984375 18.121094 51.601562 43h-18.800781c-4.683594-16.25-20.5625-26.625-37.328125-24.382812-16.761719 2.238281-29.359375 16.414062-29.617187 33.324218-.253907 16.914063 11.910156 31.460938 28.601562 34.207032 16.6875 2.742187 32.871094-7.144532 38.042969-23.25h19c-5.464844 27.105468-31.011719 45.332031-58.421875 41.675781-27.410156-3.652344-47.289063-27.933594-45.460938-55.523438 1.824219-27.59375 24.730469-49.042969 52.382813-49.050781zm14 54.800781c-1.210938 7.25-7.824219 12.332031-15.144531 11.628907-7.316407-.699219-12.847657-6.945313-12.660157-14.292969.191407-7.351563 6.03125-13.304688 13.378907-13.628907 7.34375-.324218 13.6875 5.085938 14.527343 12.390626-.171875.722656-.238281 1.460937-.199219 2.203124-.066406.566407-.03125 1.140626.097657 1.699219zm0 0"/></svg>