<svg height="440pt" viewBox="-34 0 440 440" width="440pt" xmlns="http://www.w3.org/2000/svg"><path d="m361.5 0h-351c-5.5 0-10.5 4.5-10.5 10v28c0 38.601562 31.898438 70 70.5 70h54.5v52h-40.5c-22.101562 0-40.5 17.898438-40.5 40v180h-19.5c-5.5 0-10.5 4.5-10.5 10v40c0 5.5 5 10 10.5 10h323c5.5 0 9.5-4.5 9.5-10v-40c0-5.5-4-10-9.5-10h-20.5v-180c0-22.101562-17.398438-40-39.5-40h-42.5v-52h56.5c38.601562 0 69.5-31.398438 69.5-70v-28c0-5.5-4-10-9.5-10zm-24.5 420h-303v-20h303zm-30-220v180h-243v-180c0-11 9.5-20 20.5-20h203c11 0 19.5 9 19.5 20zm-82-40h-80v-52h80zm126-122c.109375 13.207031-5.054688 25.910156-14.347656 35.296875-9.292969 9.386719-21.945313 14.679687-35.152344 14.703125h-231c-27.601562 0-50.5-22.398438-50.5-50v-18h331zm0 0"/><path d="m100.5 289c2.128906 45.671875 39.777344 81.605469 85.5 81.605469s83.371094-35.933594 85.5-81.605469c.3125-.96875.480469-1.980469.5-3 .023438-.949219-.113281-1.894531-.398438-2.800781-.984374-46.570313-39.019531-83.816407-85.601562-83.816407s-84.617188 37.246094-85.601562 83.816407c-.285157.90625-.421876 1.851562-.398438 2.800781.003906 1.019531.171875 2.035156.5 3zm85.5 61.601562c-31.960938-.085937-59.242188-23.109374-64.699219-54.601562h129.398438c-5.421875 31.511719-32.726563 54.554688-64.699219 54.601562zm0-131.203124c32.734375.058593 60.441406 24.1875 65 56.601562h-52.5l6.101562-25.199219c1.296876-5.386719-2.015624-10.804687-7.402343-12.101562-5.382813-1.296875-10.800781 2.015625-12.097657 7.402343l-7.203124 29.898438h-56.898438c4.558594-32.414062 32.265625-56.542969 65-56.601562zm0 0"/></svg>