<svg height="460pt" viewBox="-60 0 460 460" width="460pt" xmlns="http://www.w3.org/2000/svg"><path d="m264 133c.011719-7.960938-3.148438-15.597656-8.773438-21.226562-5.628906-5.625-13.265624-8.785157-21.226562-8.773438h-164c-7.960938-.011719-15.597656 3.148438-21.226562 8.773438-5.625 5.628906-8.785157 13.265624-8.773438 21.226562v193c-.011719 7.960938 3.148438 15.597656 8.773438 21.226562 5.628906 5.625 13.265624 8.785157 21.226562 8.773438h164c7.960938.011719 15.597656-3.148438 21.226562-8.773438 5.625-5.628906 8.785157-13.265624 8.773438-21.226562zm-20 193c-.015625 5.515625-4.484375 9.984375-10 10h-164c-5.515625-.015625-9.984375-4.484375-10-10v-193c.015625-5.515625 4.484375-9.984375 10-10h164c5.515625.015625 9.984375 4.484375 10 10zm0 0"/><path d="m309.601562 119h-5.601562v-5.601562c.050781-24.550782-17.757812-45.5-42-49.398438v-23.800781c0-22.097657-17.699219-40.199219-39.699219-40.199219h-140.402343c-22 0-39.898438 18.199219-39.898438 40.199219v23.902343c-24.175781 3.941407-41.9492188 24.800782-42 49.296876v233.203124c.0820312 24.484376 17.839844 45.324219 42 49.296876v23.902343c-.035156 22.097657 17.800781 40.066407 39.898438 40.199219h140.300781c22.101562 0 39.699219-18.199219 39.699219-40.199219v-23.800781c24.261718-3.867188 42.085937-24.835938 42-49.398438v-12.402343c17-.398438 30-13.699219 30-30v-31.398438c0-16.300781-13-29.601562-30-30v-22.800781h5.601562c16.5 0 30.398438-13.199219 30.398438-29.800781v-41.398438c.101562-16.5-13.699219-29.800781-30.296876-29.800781zm-227.703124-99h140.300781c11 0 19.699219 9.199219 19.699219 20.199219v22.800781h-179.898438v-22.800781c-.03125-11.050781 8.847656-20.0625 19.898438-20.199219zm140.402343 420h-140.402343c-11.050782-.136719-19.929688-9.148438-19.898438-20.199219v-22.800781h180v22.800781c0 11-8.699219 20.199219-19.699219 20.199219zm61.699219-94c.011719 7.960938-3.148438 15.597656-8.773438 21.226562-5.628906 5.625-13.265624 8.785157-21.226562 8.773438h-204c-7.960938.011719-15.597656-3.148438-21.226562-8.773438-5.625-5.628906-8.785157-13.265624-8.773438-21.226562v-233c-.011719-7.960938 3.148438-15.597656 8.773438-21.226562 5.628906-5.625 13.265624-8.785157 21.226562-8.773438h204c7.960938-.011719 15.597656 3.148438 21.226562 8.773438 5.625 5.628906 8.785157 13.265624 8.773438 21.226562zm30-73.199219v31.398438c0 5.300781-5 9.601562-10 10v-51.300781c5 .300781 10 4.703124 10 9.902343zm6-82.601562c0 5.5-4.898438 9.800781-10.398438 9.800781h-5.601562v-61h5.601562c5.5 0 10.398438 4.300781 10.398438 9.800781zm0 0"/></svg>