<svg height="472pt" viewBox="0 -79 472.00002 472" width="472pt" xmlns="http://www.w3.org/2000/svg"><path d="m442 103h-1v-72.699219c-.128906-16.679687-13.621094-30.171875-30.300781-30.300781h-348.398438c-16.679687.128906-30.171875 13.621094-30.300781 30.300781v72.699219h-2c-7.921875-.0625-15.542969 3.039062-21.175781 8.613281-5.628907 5.574219-8.8046878 13.164063-8.824219 21.085938v144c-.0078125 5.574219 4.425781 10.144531 10 10.300781h10v17c.015625 5.515625 4.484375 9.984375 10 10h66c5.515625-.015625 9.984375-4.484375 10-10v-17h259v17c.015625 5.515625 4.484375 9.984375 10 10h66c5.515625-.015625 9.984375-4.484375 10-10v-17h11c5.574219-.15625 10.007812-4.726562 10-10.300781v-144c-.019531-7.921875-3.195312-15.511719-8.824219-21.085938-5.632812-5.574219-13.253906-8.675781-21.175781-8.613281zm-390-72.699219c.097656-5.648437 4.652344-10.203125 10.300781-10.300781h348.5c5.632813.132812 10.167969 4.667969 10.300781 10.300781v72.699219h-16c-7.925781-.0625-15.546874 3.039062-21.175781 8.613281-5.632812 5.574219-8.808593 13.164063-8.824219 21.085938v3.300781h-278.101562v-3.300781c-.035156-7.917969-3.214844-15.496094-8.84375-21.066407-5.628906-5.570312-13.238281-8.675781-21.15625-8.632812h-15zm45 125.699219h278v33h-278zm-11 138h-46v-7h46zm345 0h-46v-7h46zm21-27h-432v-134.300781c.019531-2.617188 1.089844-5.121094 2.96875-6.941407 1.878906-1.824218 4.414062-2.816406 7.03125-2.757812h37c2.617188-.058594 5.152344.933594 7.03125 2.757812 1.878906 1.820313 2.949219 4.324219 2.96875 6.941407v66c-.007812 5.574219 4.425781 10.144531 10 10.300781h298c5.574219-.15625 10.007812-4.726562 10-10.300781v-66c.019531-2.617188 1.089844-5.121094 2.96875-6.941407 1.878906-1.824218 4.414062-2.816406 7.03125-2.757812h37c2.617188-.058594 5.152344.933594 7.03125 2.757812 1.878906 1.820313 2.949219 4.324219 2.96875 6.941407zm0 0"/></svg>