<svg height="441pt" viewBox="-63 0 441 441.8" width="441pt" xmlns="http://www.w3.org/2000/svg"><path d="m274.199219 0h-233.597657c-22.191406.117188-40.136718 18.109375-40.203124 40.300781v342.300781c0 20.5 16 37.5 36 39.699219v9.5c0 5.523438 4.480468 10 10 10 5.523437 0 10-4.476562 10-10v-8.800781h202v8.699219c0 5.523437 4.480468 10 10 10 5.523437 0 10-4.476563 10-10v-9.5c20-2.300781 36-19.199219 36-39.699219v-342.199219c-.0625-22.191406-18.007813-40.183593-40.199219-40.300781zm20.199219 382c-.03125 11.03125-8.964844 19.96875-20 20h-234c-11.03125-.03125-19.964844-8.96875-20-20v-342c.035156-11.03125 8.96875-19.96875 20-20h234c11.035156.03125 19.96875 8.96875 20 20zm0 0"/><path d="m157.398438 181.800781c-56.550782 0-102.398438 45.84375-102.398438 102.398438 0 56.554687 45.847656 102.402343 102.398438 102.402343 56.554687 0 102.402343-45.847656 102.402343-102.402343-.039062-56.539063-45.863281-102.359375-102.402343-102.398438zm0 184.800781c-45.507813 0-82.398438-36.894531-82.398438-82.402343 0-45.507813 36.890625-82.398438 82.398438-82.398438 45.511718 0 82.402343 36.890625 82.402343 82.398438-.078125 45.476562-36.925781 82.324219-82.402343 82.402343zm0 0"/><path d="m157.398438 221c-34.902344 0-63.199219 28.296875-63.199219 63.199219 0 34.90625 28.296875 63.199219 63.199219 63.199219 34.90625 0 63.203124-28.292969 63.203124-63.199219-.039062-34.886719-28.3125-63.160157-63.203124-63.199219zm0 106.300781c-23.855469 0-43.199219-19.34375-43.199219-43.199219 0-23.859374 19.34375-43.203124 43.199219-43.203124 23.859374 0 43.203124 19.34375 43.203124 43.203124-.042968 23.839844-19.359374 43.15625-43.203124 43.199219zm0 0"/><path d="m157.398438 156.898438c31.867187 0 57.703124-25.832032 57.703124-57.699219 0-31.867188-25.835937-57.699219-57.703124-57.699219-31.867188 0-57.699219 25.832031-57.699219 57.699219.046875 31.847656 25.855469 57.652343 57.699219 57.699219zm0-95.398438c20.824218 0 37.703124 16.878906 37.703124 37.699219 0 20.820312-16.878906 37.699219-37.703124 37.699219-20.820313 0-37.699219-16.878907-37.699219-37.699219.015625-20.8125 16.886719-37.683594 37.699219-37.699219zm0 0"/><path d="m157.398438 125.800781c14.691406 0 26.601562-11.910156 26.601562-26.601562 0-14.691407-11.910156-26.597657-26.601562-26.597657-14.6875 0-26.597657 11.90625-26.597657 26.597657-.007812 14.695312 11.90625 26.605469 26.597657 26.601562zm0-33.199219c3.648437 0 6.601562 2.953126 6.601562 6.597657s-2.953125 6.601562-6.601562 6.601562c-3.644532 0-6.597657-2.957031-6.597657-6.601562.03125-3.632813 2.96875-6.566407 6.597657-6.597657zm0 0"/></svg>