<svg height="470pt" viewBox="-77 0 470 470.00765" width="470pt" xmlns="http://www.w3.org/2000/svg"><path d="m236.804688 156.703125c-6.929688-10.992187-19.007813-17.671875-32-17.699219h-1.800782v-17.800781c-.15625-14.957031-11.195312-27.570313-26-29.699219v-15.5h30.398438c5.5 0 9.601562-4.902344 9.601562-10.402344v-56c.066406-2.566406-.921875-5.046874-2.738281-6.859374-1.8125-1.816407-4.296875-2.804688-6.863281-2.73828175h-146.5c-16.25-.17578125-29.621094 12.74999975-30 28.99999975h-20.898438c-5.523437 0-9.99999975 4.476563-9.99999975 10 0 5.523438 4.47656275 10 9.99999975 10h21.101563c1.679687 14.816406 13.992187 26.148438 28.898437 26.597656v12.902344c.015625 7.9375-3.113281 15.558594-8.699218 21.199219l-31.402344 31.5c-1.871094 1.867187-2.921875 4.40625-2.921875 7.050781 0 2.644532 1.050781 5.179688 2.921875 7.050782 1.878906 1.886718 4.441406 2.933593 7.101562 2.898437 2.652344-.011719 5.199219-1.050781 7.101563-2.898437l31.398437-31.5c9.394532-9.382813 14.648438-22.125 14.601563-35.402344v-12.398438h29v16c-13.605469 3.140625-23.179688 15.339844-23 29.300782v21.699218c-14 6.300782-24 20.199219-24 36.398438v281c0 5.5 4.597656 9.601562 10.097656 9.601562h234c2.597656.078125 5.117187-.898437 6.980469-2.707031 1.867187-1.808594 2.917968-4.296875 2.921875-6.894531v-153.300782c-.003907-17.253906-4.929688-34.148437-14.203125-48.699218zm-185.800782-111.101563v-5.097656c0-.5.101563-1 .101563-1.5s-.101563-1-.101563-1.5v-8c0-2.597656 1.054688-5.085937 2.917969-6.894531 1.867187-1.808594 4.386719-2.785156 6.980469-2.707031h136.101562v36h-136.101562c-5.5.101562-9.898438-4.800782-9.898438-10.300782zm106 30.402344v15h-28v-15zm-41.398437 35h57c5.632812.078125 10.210937 4.566406 10.398437 10.199219v17.800781h-77v-17.800781c0-5.5 4.101563-10.199219 9.601563-10.199219zm180.398437 339h-214v-270.601562c0-11 9.101563-20.398438 20.101563-20.398438h102.699219c6.179687.074219 11.902343 3.273438 15.199218 8.5l65 101.699219c7.195313 11.332031 11.007813 24.476563 11 37.898437zm0 0"/><path d="m226.105469 260.003906h-114c-5.539063.007813-10.039063 4.464844-10.101563 10v151c.0625 5.535156 4.5625 9.992188 10.101563 10h154c2.636719-.011718 5.164062-1.074218 7.019531-2.949218 1.859375-1.875 2.894531-4.410157 2.878906-7.050782v-111c.035156-27.589844-22.308594-49.984375-49.898437-50zm29.898437 151h-134v-131h104.101563c16.527343.054688 29.898437 13.46875 29.898437 30zm0 0"/></svg>