<svg height="450pt" viewBox="0 -52 450 450" width="450pt" xmlns="http://www.w3.org/2000/svg"><path d="m419.898438 0h-280c-16.5 0-30 14-30 30h-30c-13 0-24.199219 9-28.296876 20h-21.5c-16.601562 0-30.101562 13.898438-30.101562 30.5v40.101562c0 16.5 13.5 30.5 30.101562 30.5h21.5c4.097657 11 15.199219 20 28.296876 20h30c0 16 13.5 30 30 30h61l24.101562 47.796876c-8.28125 7.941406-12.945312 18.929687-12.898438 30.402343.027344 16.015625 9.0625 30.652344 23.367188 37.859375 14.304688 7.203125 31.445312 5.75 44.332031-3.761718l69.199219 31.402343c1.285156.59375 2.683594.898438 4.101562.898438 3.925782-.015625 7.480469-2.320313 9.097657-5.898438 1.117187-2.410156 1.214843-5.167969.277343-7.652343-.941406-2.484376-2.84375-4.484376-5.277343-5.546876l-64.199219-29.402343c6.246094-13.164063 5.308594-28.609375-2.480469-40.925781-7.792969-12.3125-21.347656-19.777344-35.917969-19.773438-4.183593.078125-8.328124.789062-12.300781 2.101562l-19-37.601562h196.597657c16.5 0 30.101562-13.898438 30.101562-30.5v-140c0-16.601562-13.5-30.5-30.101562-30.5zm-142.796876 279c-.007812 5.496094-2.039062 10.800781-5.703124 14.898438-.414063.351562-.785157.753906-1.097657 1.203124-7.667969 7.464844-19.535156 8.492188-28.371093 2.457032-8.835938-6.035156-12.199219-17.460938-8.035157-27.320313 4.164063-9.859375 14.699219-15.417969 25.1875-13.289062 10.488281 2.125 18.023438 11.347656 18.019531 22.050781zm-257.101562-158.5v-40.101562c0-5.5 4.601562-10.5 10.101562-10.5h19.898438v61h-19.898438c-5.5.101562-10.101562-4.796876-10.101562-10.398438zm59.898438 30.5c-5.5 0-9.898438-4.898438-9.898438-10.5v-80.101562c0-5.5 4.398438-10.5 9.898438-10.5h30.101562v101h-30.101562zm350.101562 19c-.015625 5.515625-4.484375 9.984375-10 10h-280c-5.515625-.015625-9.984375-4.484375-10-10v-140c.015625-5.515625 4.484375-9.984375 10-10h280c5.515625.015625 9.984375 4.484375 10 10zm0 0"/><path d="m178 59c-5.515625.015625-9.984375 4.484375-10 10v65c0 5.523438 4.476562 10 10 10s10-4.476562 10-10v-65c-.015625-5.515625-4.484375-9.984375-10-10zm0 0"/><path d="m208 59c-5.515625.015625-9.984375 4.484375-10 10v65c0 5.523438 4.476562 10 10 10s10-4.476562 10-10v-65c-.015625-5.515625-4.484375-9.984375-10-10zm0 0"/><path d="m238 59c-5.515625.015625-9.984375 4.484375-10 10v65c0 5.523438 4.476562 10 10 10s10-4.476562 10-10v-65c-.015625-5.515625-4.484375-9.984375-10-10zm0 0"/></svg>