<svg height="477pt" viewBox="0 -9 477.90054 477" width="477pt" xmlns="http://www.w3.org/2000/svg"><path d="m447.601562 117.210938h-312.601562l69.199219-101c3.128906-4.585938 1.96875-10.839844-2.597657-14-2.1875-1.507813-4.882812-2.078126-7.492187-1.589844-2.609375.488281-4.917969 1.996094-6.410156 4.191406l-69.5 101.300781-27-65.402343c-1.019531-2.453126-2.972657-4.402344-5.429688-5.417969-2.457031-1.011719-5.214843-1.003907-7.667969.019531-5.109374 2.183594-7.515624 8.0625-5.402343 13.199219l28.300781 68.800781h-70.601562c-16.5-.101562-30.398438 13.097656-30.398438 29.699219v283c0 16.5 13.898438 30.300781 30.398438 30.300781h417.101562c16.699219-.121094 30.222656-13.601562 30.398438-30.300781v-283c.101562-16.601563-13.796876-29.800781-30.296876-29.800781zm9.398438 313c-.015625 5.515624-4.484375 9.984374-10 10h-417c-5.515625-.015626-9.984375-4.484376-10-10v-283c.015625-5.515626 4.484375-9.984376 10-10h417c5.515625.015624 9.984375 4.484374 10 10zm0 0"/><path d="m367 167.210938c-.015625-5.515626-4.484375-9.984376-10-10h-307c-5.515625.015624-9.984375 4.484374-10 10v243c.015625 5.515624 4.484375 9.984374 10 10h307c5.515625-.015626 9.984375-4.484376 10-10zm-19 233h-288v-223h288zm0 0"/><path d="m413 195.8125c-18.003906 0-32.601562 14.59375-32.601562 32.597656 0 18.007813 14.597656 32.601563 32.601562 32.601563s32.601562-14.59375 32.601562-32.601563c-.003906-18-14.597656-32.59375-32.601562-32.597656zm0 45.300781c-6.957031 0-12.601562-5.644531-12.601562-12.601562s5.644531-12.601563 12.601562-12.601563 12.601562 5.644532 12.601562 12.601563c-.007812 6.957031-5.644531 12.59375-12.601562 12.601562zm0 0"/><path d="m428 305.210938h-30c-5.523438 0-10 4.476562-10 10 0 5.523437 4.476562 10 10 10h30c5.523438 0 10-4.476563 10-10 0-5.523438-4.476562-10-10-10zm0 0"/><path d="m428 335.210938h-30c-5.523438 0-10 4.476562-10 10 0 5.523437 4.476562 10 10 10h30c5.523438 0 10-4.476563 10-10 0-5.523438-4.476562-10-10-10zm0 0"/><path d="m428 365.210938h-30c-5.523438 0-10 4.476562-10 10 0 5.523437 4.476562 10 10 10h30c5.523438 0 10-4.476563 10-10 0-5.523438-4.476562-10-10-10zm0 0"/></svg>