<svg height="402pt" viewBox="0 -11 402 402" width="402pt" xmlns="http://www.w3.org/2000/svg"><path d="m381.898438 88.925781h-26.898438v-43.898437c0-.101563-.101562-.199219-.101562-.300782-.351563-12.800781-6.214844-24.824218-16.082032-32.984374-9.867187-8.164063-22.777344-11.6679692-35.417968-9.613282l-34.699219 5.796875c-18.691407 3.015625-37.726563 3.285157-56.5.800781l-49.300781-6.800781c-16.640626-2.265625-33.492188-2.535156-50.199219-.796875l-25.199219 2.597656c-20.644531 2.097657-37.039062 18.285157-39.398438 38.902344l-.703124 5.097656c-.230469 1.691407-.363282 3.394532-.398438 5.101563v36h-26.898438c-11.015624-.070313-20.0039058 8.785156-20.101562 19.800781v226.5c.0351562 5.28125 2.175781 10.335938 5.949219 14.03125 3.773437 3.699219 8.867187 5.738282 14.152343 5.667969h7.898438v15c.015625 5.515625 4.484375 9.984375 10 10h66c5.515625-.015625 9.984375-4.484375 10-10v-15h171v15c.015625 5.515625 4.484375 9.984375 10 10h66c5.515625-.015625 9.984375-4.484375 10-10v-15h10.898438c5.285156.070313 10.378906-1.96875 14.152343-5.664063 3.773438-3.699218 5.917969-8.753906 5.949219-14.035156v-226.402344c-.027344-5.292968-2.164062-10.359374-5.9375-14.074218s-8.867188-5.777344-14.164062-5.726563zm-314.898438-36c.050781-.9375.152344-1.871093.300781-2.796875l.699219-5.101562c1.253906-11.316406 10.265625-20.207032 21.601562-21.300782l25.199219-2.597656c15.105469-1.570312 30.347657-1.335937 45.398438.699219l49.402343 6.699219c20.761719 2.800781 41.824219 2.496094 62.5-.898438l34.597657-5.703125c6.945312-1.097656 14.027343.792969 19.5 5.203125 5.503906 4.371094 8.769531 10.96875 8.902343 18v43.796875h-268.101562zm27 307h-46v-5h46zm257 0h-46v-5h46zm30.898438-25h-361.898438v-226h361.898438zm0 0"/><path d="m342.800781 211.925781h-22.800781v-57c0-5.523437-4.476562-10-10-10s-10 4.476563-10 10v57h-20.800781c-5.5 0-10.199219 4-10.199219 9.5v32.5c.109375 5.554688 4.644531 10.003907 10.199219 10h20.800781v25c0 5.523438 4.476562 10 10 10s10-4.476562 10-10v-25h22.800781c5.554688.003907 10.089844-4.445312 10.199219-10v-32.5c0-5.5-4.699219-9.5-10.199219-9.5zm-9.800781 32h-44v-12h44zm0 0"/></svg>