<svg height="403pt" viewBox="-11 0 403 403.8" width="403pt" xmlns="http://www.w3.org/2000/svg"><path d="m210.601562 1.101562c-12.894531-1.46875-25.910156-1.46875-38.800781 0-97.207031 10.238282-171.089843 92.054688-171.402343 189.796876.015624 5.519531 4.484374 9.984374 10 10h170.800781v154.902343c0 15.480469-12.519531 28.042969-28 28.097657h-1c-15.480469-.054688-28-12.617188-28-28.097657 0-5.523437-4.476563-10-10-10-5.523438 0-10 4.476563-10 10 .007812 26.507813 21.492187 47.992188 48 48h1c26.511719-.089843 47.96875-21.589843 48-48.101562v-154.800781h170.699219c5.519531-.015626 9.984374-4.480469 10-10-.3125-97.703126-74.136719-179.5-171.296876-189.796876zm-140.101562 69.398438c9.015625-9.007812 18.972656-17.019531 29.699219-23.898438-2.289063 4.238282-4.328125 8.613282-6.097657 13.097657-12.601562 32.699219-13.5 77.300781-13.601562 121.199219h-59.800781c2.460937-41.671876 20.1875-80.976563 49.800781-110.398438zm30 110.398438c.101562-41.898438.898438-84.597657 12.300781-113.898438 10.398438-27 29-41.5 59-45.699219 3.199219-.402343 6.5-.601562 9.5-.800781v160.398438zm100.699219-160.398438c3 .199219 6.402343.5 9.5.800781 30 4.097657 48.5 18.699219 59 45.699219 11.402343 29.300781 12.199219 72 12.300781 113.898438h-80.800781zm100.699219 160.398438c-.097657-43.898438-1-88.5-13.597657-121.199219-1.710937-4.507813-3.75-8.886719-6.101562-13.097657 10.75 6.847657 20.710937 14.863282 29.699219 23.898438 29.589843 29.429688 47.285156 68.738281 49.703124 110.398438zm0 0"/></svg>