<svg height="495pt" viewBox="-73 0 495 495.6" width="495pt" xmlns="http://www.w3.org/2000/svg"><path d="m300.300781 367.898438v-186.699219c0-5.5-4.796875-9.597657-10.296875-9.597657h-16.703125v-57.601562c0-62.960938-51.039062-114-114-114-62.960937 0-114 51.039062-114 114v327.601562h-15.5c-7.859375-.066406-15.417969 3.035157-20.964843 8.601563-5.550782 5.570313-8.625 13.136719-8.535157 20.996094v14c0 5.5 4 10.402343 9.5 10.402343h120c5.691407-.164062 10.285157-4.710937 10.5-10.402343v-14c0-16.5-13.898437-29.597657-30.5-29.597657h-14.5v-327.601562c0-35.347656 28.65625-64 64-64 35.347657 0 64 28.652344 64 64v57.5c-57 4.398438-102 51.898438-102 109.699219v152c0 5.5 4.703125 10.5 10.203125 10.5h98.398438c7 25 30.5 44.402343 58.398437 44.402343 33.433594-.085937 60.519531-27.167968 60.601563-60.601562 0-29.5-21.601563-54.101562-48.601563-59.601562zm-180 103.300781v4.402343h-100v-4.402343c-.089843-2.554688.878907-5.035157 2.679688-6.851563 1.796875-1.816406 4.265625-2.8125 6.820312-2.746094h80c5.601563 0 10.5 4 10.5 9.597657zm39-441.199219c-46.363281.066406-83.933593 37.636719-84 84v327.601562h-10v-327.601562c0-51.914062 42.085938-94 94-94 51.914063 0 94 42.085938 94 94v57.601562h-10v-57.601562c-.0625-46.363281-37.632812-83.933594-84-84zm61 161.898438v81.300781c0 11-9.296875 20.5-20.296875 20.5h-58.703125v-12.398438c-.0625-45.492187 33.847657-83.867187 79-89.402343zm-79 121.703124h58.703125c22.097656 0 40.296875-18.402343 40.296875-40.5v-81.5h40v175.699219c-28.539062 4.09375-50.363281 27.539063-52.398437 56.300781h-86.601563zm147 154.199219c-22.367187 0-40.5-18.132812-40.5-40.5 0-22.367187 18.132813-40.5 40.5-40.5 22.367188 0 40.5 18.132813 40.5 40.5-.046875 22.347657-18.152343 40.453125-40.5 40.5zm0 0"/></svg>