<svg height="448pt" viewBox="-66 0 447 448" width="448pt" xmlns="http://www.w3.org/2000/svg"><path d="m294.300781 0h-273.601562c-11.089844.0625-20.082031 9.007812-20.199219 20.101562v384.199219c.054688 5.292969 2.21875 10.347657 6.007812 14.042969 3.792969 3.699219 8.898438 5.734375 14.191407 5.65625h4.800781v13.898438c-.042969 2.640624.96875 5.1875 2.808594 7.082031 1.835937 1.894531 4.351562 2.980469 6.992187 3.019531h60c5.574219-.046875 10.097657-4.527344 10.199219-10.101562v-13.898438h104v13.898438c.101562 5.574218 4.625 10.054687 10.199219 10.101562h60c2.640625-.039062 5.15625-1.125 6.992187-3.019531 1.839844-1.894531 2.851563-4.441407 2.808594-7.082031v-13.898438h4.800781c5.292969.078125 10.398438-1.957031 14.191407-5.65625 3.789062-3.695312 5.953124-8.75 6.007812-14.042969v-384.199219c-.082031-11.105468-9.09375-20.0742182-20.199219-20.101562zm-151.800781 202h-122v-80h122zm0-182v82h-122v-82zm-122 202h122v182h-122zm65 206h-40v-4h40zm184 0h-40v-4h40zm24.800781-24h-131.800781v-384h131.800781zm0 0"/><path d="m180.5 192c-5.515625.015625-9.984375 4.484375-10 10v23c0 5.523438 4.476562 10 10 10s10-4.476562 10-10v-23c-.015625-5.515625-4.484375-9.984375-10-10zm0 0"/><path d="m93 252h-22.300781c-5.523438 0-10 4.476562-10 10s4.476562 10 10 10h22.300781c5.523438 0 10-4.476562 10-10s-4.476562-10-10-10zm0 0"/></svg>