<svg height="469pt" viewBox="-55 0 469 469" width="469pt" xmlns="http://www.w3.org/2000/svg"><path d="m358 40c.007812-22.09375-17.90625-40.0078125-40-40h-278c-22.09375-.0078125-40.0078125 17.90625-40 40v389c-.0078125 22.09375 17.90625 40.007812 40 40h278c22.09375.007812 40.007812-17.90625 40-40zm-20-.398438v58.398438h-208v-78h188.101562c5.25-.089844 10.316407 1.9375 14.058594 5.625 3.746094 3.6875 5.847656 8.722656 5.839844 13.976562zm-298.101562-19.601562h70.101562v78h-90v-58.398438c-.007812-5.253906 2.09375-10.289062 5.839844-13.976562 3.742187-3.6875 8.808594-5.714844 14.058594-5.625zm278.203124 428h-278.203124c-5.246094.070312-10.304688-1.960938-14.042969-5.644531-3.738281-3.683594-5.847657-8.707031-5.855469-13.957031v-310.398438h318v310.398438c.007812 5.253906-2.09375 10.289062-5.839844 13.976562-3.742187 3.6875-8.808594 5.714844-14.058594 5.625zm0 0"/><path d="m179 152.898438c-73 0-132.300781 59.402343-132.300781 132.300781 0 73 59.402343 132.300781 132.300781 132.300781s132.300781-59.398438 132.300781-132.300781c0-72.898438-59.300781-132.300781-132.300781-132.300781zm0 244.601562c-62.023438 0-112.300781-50.277344-112.300781-112.300781 0-62.019531 50.277343-112.300781 112.300781-112.300781s112.300781 50.28125 112.300781 112.300781c-.085937 61.988281-50.316406 112.214843-112.300781 112.300781zm0 0"/><path d="m179 201.300781c-46.390625 0-84 37.605469-84 84 0 46.390625 37.609375 84 84 84s84-37.609375 84-84c-.066406-46.367187-37.636719-83.9375-84-84zm0 147.898438c-35.347656 0-64-28.652344-64-64 0-35.34375 28.652344-64 64-64s64 28.65625 64 64c-.03125 35.332031-28.667969 63.96875-64 64zm0 0"/><path d="m280.199219 87.300781c15.742187 0 28.5-12.761719 28.5-28.5 0-15.742187-12.757813-28.5-28.5-28.5-15.738281 0-28.5 12.757813-28.5 28.5.03125 15.726563 12.773437 28.46875 28.5 28.5zm0-37c4.695312 0 8.5 3.804688 8.5 8.5 0 4.695313-3.804688 8.5-8.5 8.5-4.695313 0-8.5-3.804687-8.5-8.5 0-2.253906.894531-4.417969 2.488281-6.011719 1.59375-1.597656 3.757812-2.492187 6.011719-2.488281zm0 0"/><path d="m220 79c5.515625-.015625 9.984375-4.484375 10-10v-22c0-5.523438-4.476562-10-10-10s-10 4.476562-10 10v22c.015625 5.515625 4.484375 9.984375 10 10zm0 0"/><path d="m181 79c5.515625-.015625 9.984375-4.484375 10-10v-22c0-5.523438-4.476562-10-10-10s-10 4.476562-10 10v22c.015625 5.515625 4.484375 9.984375 10 10zm0 0"/></svg>