<svg height="454pt" viewBox="-90 0 454 454.10025" width="454pt" xmlns="http://www.w3.org/2000/svg"><path d="m248.25 148.398438-7.398438-55.699219c-1.140624-9.871094-7.253906-18.472657-16.203124-22.800781v-30c0-10.597657-4.214844-20.761719-11.71875-28.246094-7.503907-7.488282-17.679688-11.6796878-28.28125-11.652344h-96c-10.597657-.0273438-20.773438 4.164062-28.277344 11.652344-7.503906 7.484375-11.722656 17.648437-11.722656 28.246094v30c-8.925782 4.347656-15.03125 12.941406-16.199219 22.800781l-7.398438 55.601562c-33.296875 47.136719-33.335937 110.121094-.101562 157.300781l7.402343 55.796876c1.136719 9.875 7.25 18.476562 16.199219 22.800781v30c0 10.601562 4.214844 20.765625 11.722657 28.25 7.503906 7.484375 17.675781 11.675781 28.277343 11.652343h96.097657c10.601562.023438 20.777343-4.167968 28.28125-11.652343 7.503906-7.484375 11.71875-17.648438 11.71875-28.25v-30c8.949218-4.324219 15.0625-12.925781 16.203124-22.800781l7.398438-55.699219c33.332031-47.132813 33.332031-110.164063 0-157.300781zm-186.101562-61.296876h149c4.988281-.109374 9.253906 3.554688 9.902343 8.5l3.597657 27.199219c-50.761719-43.03125-125.1875-43.070312-176-.101562l3.601562-27.097657c.648438-4.945312 4.914062-8.609374 9.898438-8.5zm26.5-67h96c11.015624-.015624 19.960937 8.886719 20 19.898438v27.101562h-136v-27.101562c.003906-5.292969 2.113281-10.371094 5.867187-14.105469s8.839844-5.820312 14.132813-5.792969zm48 90.398438c64.398437 0 116.601562 52.203125 116.601562 116.601562 0 64.394532-52.203125 116.597657-116.601562 116.597657-64.394532 0-116.597657-52.203125-116.597657-116.597657.066407-64.371093 52.230469-116.53125 116.597657-116.601562zm74.5 256.601562h-149c-4.984376.105469-9.25-3.558593-9.898438-8.5l-3.601562-27.300781c50.839843 43.027344 125.3125 43.070313 176.203124.097657l-3.601562 27.203124c-.800781 4.941407-5.09375 8.554688-10.101562 8.5zm-26.5 67h-96c-11.011719.011719-19.957032-8.886718-20-19.902343v-27.097657h136v27.097657c0 5.296875-2.113282 10.371093-5.863282 14.105469-3.753906 3.734374-8.839844 5.820312-14.136718 5.796874zm0 0"/><path d="m163.851562 264.300781c2.652344-.011719 5.195313-1.050781 7.097657-2.902343 1.875-1.867188 2.925781-4.402344 2.925781-7.046876 0-2.648437-1.050781-5.183593-2.925781-7.050781l-24.300781-24.300781v-49.898438c0-5.523437-4.476563-10-10-10-5.519532 0-10 4.476563-10 10v58.199219l30.101562 30.097657c1.902344 1.851562 4.445312 2.890624 7.101562 2.902343zm0 0"/></svg>