<svg height="502pt" viewBox="0 -117 502 502" width="502pt" xmlns="http://www.w3.org/2000/svg"><path d="m491.5 0h-33c-11 0-19.5 8.800781-19.5 19.898438v7.203124l-104.5 75.597657-7.398438-88.699219c-.496093-5.179688-4.898437-9.101562-10.101562-9h-232c-5.128906-.152344-9.5 3.691406-10 8.800781l-3.398438 42.199219h-21.101562c-27.601562 0-50.5 22.699219-50.5 50.300781v33.5c0 27.597657 22.898438 50.199219 50.5 50.199219h10.101562l-2.902343 35c-.953125 11.128906 2.832031 22.144531 10.429687 30.332031 7.601563 8.1875 18.300782 12.789063 29.472656 12.667969h206.898438c11.15625.046875 21.820312-4.589844 29.390625-12.789062 7.566406-8.195313 11.34375-19.195313 10.410156-30.3125l-1.300781-16 99.300781-101.199219c3.734375 5.242187 9.761719 8.367187 16.199219 8.402343h33c5.5 0 10.5-4.601562 10.5-10.101562v-96c0-5.699219-5-10-10.5-10zm-183.699219 25 .800781 10h-215.203124l.800781-10zm-257.300781 145c-16.601562 0-30.5-13.699219-30.5-30.199219v-33.5c0-16.5 13.898438-30.300781 30.5-30.300781h19.5l-7.699219 94zm268.699219 71.601562c-3.761719 4.128907-9.109375 6.457032-14.699219 6.398438h-206.898438c-5.554687.027344-10.863281-2.273438-14.644531-6.335938-3.777343-4.066406-5.6875-9.527343-5.257812-15.0625l14.101562-171.601562h218.5l14.097657 171.699219c.453124 5.480469-1.4375 10.890625-5.199219 14.902343zm17.199219-115.601562 102.601562-74.199219v31.097657l-97.800781 99.601562zm145.601562-30h-23v-76h23zm0 0"/></svg>