<svg height="453pt" viewBox="0 -20 453.90087 453" width="453pt" xmlns="http://www.w3.org/2000/svg"><path d="m434.5 320.449219h-10.5v-300c0-11-8.5-20-19.5-20h-355c-11 0-19.5 9-19.5 20v300h-10.5c-11 0-19.5 9.402343-19.5 20.402343v51.597657c0 11 8.5 20 19.5 20h414.898438c11 0 19.5-9 19.5-20v-51.597657c.101562-11-8.398438-20.402343-19.398438-20.402343zm-384.5-300h354v300h-354zm384.5 372h-414.5v-52h414.5zm0 0"/><path d="m385 50.449219c-.015625-5.515625-4.484375-9.984375-10-10h-295c-5.515625.015625-9.984375 4.484375-10 10v241c.015625 5.515625 4.484375 9.984375 10 10h295c5.515625-.015625 9.984375-4.484375 10-10zm-21 109h-127v-99h127zm-147-99v99h-127v-99zm-127 119h127v102h-127zm147 102v-102h127v102zm0 0"/></svg>