<svg height="512pt" viewBox="-77 0 512 512.00154" width="512pt" xmlns="http://www.w3.org/2000/svg"><g fill="#78b9eb"><path d="m68.265625 366.9375c-4.710937 0-8.53125 3.820312-8.53125 8.53125v59.734375h238.925781v-59.734375c0-4.710938-3.820312-8.53125-8.535156-8.53125zm0 0"/><path d="m76.796875 469.335938h204.796875l17.066406-34.132813h-238.925781zm0 0"/><path d="m76.796875 494.933594c0 4.710937 3.824219 8.53125 8.535156 8.53125h187.726563c4.714844 0 8.535156-3.820313 8.535156-8.53125v-25.597656h-204.796875zm0 0"/></g><path d="m290.125 358.40625v-38.707031c77.636719-61.308594 90.875-173.945313 29.566406-251.582031-61.304687-77.636719-173.941406-90.871094-251.578125-29.5625-43.039062 33.984374-68.1367185 85.816406-68.113281 140.65625-.160156 54.859374 25.039062 106.710937 68.265625 140.488281v38.707031c-9.425781 0-17.066406 7.640625-17.066406 17.066406v59.730469c0 .109375.058593.203125.058593.316406.039063.894531.21875 1.777344.53125 2.617188.078126.1875.121094.375.195313.566406.078125.1875.0625.210937.113281.3125l16.167969 32.335937v23.582032c0 9.425781 7.640625 17.066406 17.066406 17.066406h187.730469c9.421875 0 17.0625-7.640625 17.0625-17.066406v-23.582032l16.214844-32.335937c.050781-.101563.058594-.210937.109375-.3125.050781-.105469.121093-.378906.195312-.566406.316407-.839844.496094-1.726563.53125-2.625 0-.105469.058594-.199219.058594-.308594v-59.730469c0-9.425781-7.640625-17.066406-17.066406-17.066406-.011719 0-.027344 0-.042969 0zm-208.207031-49.714844c-71.632813-53.726562-86.148438-155.347656-32.425781-226.980468 53.726562-71.632813 155.347656-86.152344 226.980468-32.425782 71.632813 53.726563 86.152344 155.347656 32.425782 226.980469-9.21875 12.289063-20.132813 23.207031-32.425782 32.425781-2.148437 1.613282-3.414062 4.140625-3.414062 6.828125v42.886719h-187.726563v-42.898438c-.003906-2.683593-1.265625-5.207031-3.414062-6.816406zm-13.652344 66.78125h221.859375v51.195313h-221.859375zm208.054687 85.328125h-194.246093l-8.535157-17.066406h211.3125zm-190.988281 34.132813v-17.066406h187.726563v17.066406zm0 0" fill="#1e81ce"/><path d="m130.496094 236.441406c3.335937 3.332032 8.734375 3.332032 12.066406 0l36.632812-36.632812 36.632813 36.632812c3.332031 3.332032 8.734375 3.332032 12.066406 0l42.664063-42.664062c3.273437-3.390625 3.179687-8.792969-.210938-12.066406-3.304687-3.195313-8.546875-3.195313-11.855468 0l-36.632813 36.632812-36.628906-36.632812c-3.332031-3.332032-8.734375-3.332032-12.066407 0l-36.632812 36.632812-36.632812-36.632812c-3.390626-3.273438-8.792969-3.179688-12.066407.207031-3.191406 3.308593-3.191406 8.550781 0 11.859375zm0 0" fill="#1e81ce"/></svg>