<svg xmlns="http://www.w3.org/2000/svg" height="599pt" version="1.1" viewBox="-21 0 599 599.318" width="599pt">
<g id="surface1">
<path d="M 62.113281 0 L 433.90625 0 C 468.132812 0 495.871094 27.742188 495.871094 61.964844 L 0.148438 61.964844 C 0.148438 27.742188 27.886719 0 62.113281 0 Z M 62.113281 0 " style=" stroke:none;fill-rule:nonzero;fill:rgb(24.313725%,54.901961%,78.039216%);fill-opacity:1;" />
<path d="M 248.011719 444.085938 L 62.113281 444.085938 L 0.148438 61.964844 L 248.011719 61.964844 Z M 248.011719 444.085938 " style=" stroke:none;fill-rule:nonzero;fill:rgb(52.941176%,80.784314%,85.098039%);fill-opacity:1;" />
<path d="M 248.011719 599 L 0.148438 599 L 0.148438 547.363281 L 62.113281 444.085938 L 248.011719 444.085938 Z M 248.011719 599 " style=" stroke:none;fill-rule:nonzero;fill:rgb(24.313725%,54.901961%,78.039216%);fill-opacity:1;" />
<path d="M 430.023438 237.535156 L 313.859375 237.535156 C 299.480469 237.535156 286.996094 227.640625 283.703125 213.648438 L 248.011719 61.964844 L 495.871094 61.964844 L 460.179688 213.648438 C 456.886719 227.640625 444.398438 237.535156 430.023438 237.535156 Z M 430.023438 237.535156 " style=" stroke:none;fill-rule:nonzero;fill:rgb(85.490196%,86.666667%,87.45098%);fill-opacity:1;" />
<path d="M 309.976562 0 L 433.90625 0 C 468.132812 0 495.871094 27.742188 495.871094 61.964844 L 248.011719 61.964844 C 248.011719 27.742188 275.75 0 309.976562 0 Z M 309.976562 0 " style=" stroke:none;fill-rule:nonzero;fill:rgb(26.27451%,59.607843%,81.960784%);fill-opacity:1;" />
<path d="M 248.011719 547.363281 L 506.199219 547.363281 C 517.613281 547.363281 526.855469 556.605469 526.855469 568.015625 L 526.855469 599 L 248.011719 599 Z M 248.011719 547.363281 " style=" stroke:none;fill-rule:nonzero;fill:rgb(26.27451%,59.607843%,81.960784%);fill-opacity:1;" />
<path d="M 340.957031 237.535156 L 402.921875 237.535156 L 402.921875 278.84375 L 340.957031 278.84375 Z M 340.957031 237.535156 " style=" stroke:none;fill-rule:nonzero;fill:rgb(24.313725%,54.901961%,78.039216%);fill-opacity:1;" />
<path d="M 340.957031 237.535156 L 402.921875 237.535156 L 402.921875 258.1875 L 340.957031 258.1875 Z M 340.957031 237.535156 " style=" stroke:none;fill-rule:nonzero;fill:rgb(24.313725%,54.901961%,78.039216%);fill-opacity:1;" />
<path d="M 144.734375 526.707031 C 144.734375 538.113281 135.488281 547.363281 124.078125 547.363281 C 112.671875 547.363281 103.425781 538.113281 103.425781 526.707031 C 103.425781 515.300781 112.671875 506.050781 124.078125 506.050781 C 135.488281 506.050781 144.734375 515.300781 144.734375 526.707031 Z M 144.734375 526.707031 " style=" stroke:none;fill-rule:nonzero;fill:rgb(87.058824%,29.803922%,23.529412%);fill-opacity:1;" />
<path d="M 516.527344 547.363281 L 475.21875 547.363281 L 475.21875 526.707031 L 516.527344 526.707031 C 527.9375 526.707031 537.183594 517.464844 537.183594 506.050781 L 537.183594 361.464844 C 537.183594 350.054688 527.9375 340.808594 516.527344 340.808594 L 444.234375 340.808594 L 444.234375 320.15625 L 516.527344 320.15625 C 539.339844 320.15625 557.835938 338.652344 557.835938 361.464844 L 557.835938 506.050781 C 557.835938 528.863281 539.339844 547.363281 516.527344 547.363281 Z M 516.527344 547.363281 " style=" stroke:none;fill-rule:nonzero;fill:rgb(24.313725%,54.901961%,78.039216%);fill-opacity:1;" />
<path d="M 473.304688 392.539062 C 449.398438 393.574219 448.707031 413.101562 423.578125 413.101562 C 397.757812 413.101562 397.757812 392.449219 371.941406 392.449219 C 346.121094 392.449219 346.121094 413.101562 320.304688 413.101562 C 295.1875 413.101562 294.484375 393.574219 270.628906 392.539062 C 255.703125 439.890625 248.082031 489.25 248.011719 538.894531 L 248.011719 547.363281 L 495.871094 547.363281 L 495.871094 538.894531 C 495.820312 489.25 488.207031 439.890625 473.304688 392.539062 Z M 473.304688 392.539062 " style=" stroke:none;fill-rule:nonzero;fill:rgb(52.941176%,32.54902%,22.352941%);fill-opacity:1;" />
<path d="M 444.234375 320.15625 L 444.234375 278.84375 L 278.992188 278.84375 L 299.648438 320.15625 C 288.050781 343.476562 278.332031 367.683594 270.574219 392.539062 C 294.402344 393.574219 295.132812 413.101562 320.25 413.101562 C 346.070312 413.101562 346.070312 392.449219 371.890625 392.449219 C 397.707031 392.449219 397.707031 413.101562 423.527344 413.101562 C 448.683594 413.101562 449.417969 393.574219 473.285156 392.539062 C 465.539062 367.683594 455.820312 343.476562 444.234375 320.15625 Z M 444.234375 320.15625 " style=" stroke:none;fill-rule:nonzero;fill:rgb(52.941176%,80.784314%,85.098039%);fill-opacity:1;" />
<path d="M 93.097656 382.121094 L 52.066406 382.121094 L 55.410156 402.773438 L 93.097656 402.773438 Z M 93.097656 382.121094 " style=" stroke:none;fill-rule:nonzero;fill:rgb(36.862745%,70.196078%,81.960784%);fill-opacity:1;" />
<path d="M 124.078125 330.484375 L 43.6875 330.484375 L 47.046875 351.136719 L 124.078125 351.136719 Z M 124.078125 330.484375 " style=" stroke:none;fill-rule:nonzero;fill:rgb(36.862745%,70.196078%,81.960784%);fill-opacity:1;" />
<path d="M 82.769531 278.84375 L 35.3125 278.84375 L 38.667969 299.5 L 82.769531 299.5 Z M 82.769531 278.84375 " style=" stroke:none;fill-rule:nonzero;fill:rgb(36.862745%,70.196078%,81.960784%);fill-opacity:1;" />
<path d="M 113.75 227.207031 L 26.949219 227.207031 L 30.292969 247.863281 L 113.75 247.863281 Z M 113.75 227.207031 " style=" stroke:none;fill-rule:nonzero;fill:rgb(36.862745%,70.196078%,81.960784%);fill-opacity:1;" />
<path d="M 62.113281 175.570312 L 18.570312 175.570312 L 21.917969 196.222656 L 62.113281 196.222656 Z M 62.113281 175.570312 " style=" stroke:none;fill-rule:nonzero;fill:rgb(36.862745%,70.196078%,81.960784%);fill-opacity:1;" />
<path d="M 93.097656 123.929688 L 10.195312 123.929688 L 13.542969 144.585938 L 93.097656 144.585938 Z M 93.097656 123.929688 " style=" stroke:none;fill-rule:nonzero;fill:rgb(36.862745%,70.196078%,81.960784%);fill-opacity:1;" />
<path d="M 287.90625 223.457031 C 293.617188 232.234375 303.386719 237.535156 313.859375 237.535156 L 430.023438 237.535156 C 444.398438 237.535156 456.882812 227.640625 460.179688 213.648438 L 495.871094 61.964844 L 449.398438 61.964844 Z M 287.90625 223.457031 " style=" stroke:none;fill-rule:nonzero;fill:rgb(81.960784%,83.137255%,83.921569%);fill-opacity:1;" />
</g>
</svg>