<svg height="512pt" viewBox="-17 0 512 512" width="512pt" xmlns="http://www.w3.org/2000/svg"><path d="m401.066406 230.398438c9.425782 0 17.066406-7.640626 17.066406-17.066407v-34.132812h-358.398437v34.132812c0 9.425781 7.640625 17.066407 17.066406 17.066407zm0 0" fill="#78b9eb"/><path d="m196.265625 230.398438-8.53125 68.269531h102.398437l-4.265624-34.136719-4.265626-34.132812zm0 0" fill="#78b9eb"/><path d="m435.199219 401.066406c-18.851563 0-34.132813 15.28125-34.132813 34.132813v34.132812c0 18.851563 15.28125 34.136719 34.132813 34.136719 18.851562 0 34.132812-15.285156 34.132812-34.136719v-34.132812c0-18.851563-15.28125-34.132813-34.132812-34.132813zm0 0" fill="#78b9eb"/><g fill="#1e81ce"><path d="m68.265625 477.867188c0 4.710937 3.820313 8.53125 8.535156 8.53125h221.863281c4.714844 0 8.535157-3.820313 8.535157-8.53125 0-4.714844-3.820313-8.535157-8.535157-8.535157h-221.863281c-4.714843 0-8.535156 3.820313-8.535156 8.535157zm0 0"/><path d="m315.734375 477.867188c0 4.710937 3.820313 8.53125 8.53125 8.53125h17.066406c4.714844 0 8.535157-3.820313 8.535157-8.53125 0-4.714844-3.820313-8.535157-8.535157-8.535157h-17.066406c-4.710937 0-8.53125 3.820313-8.53125 8.535157zm0 0"/><path d="m51.199219 469.332031h-17.066407c-4.710937 0-8.53125 3.820313-8.53125 8.535157 0 4.710937 3.820313 8.53125 8.53125 8.53125h17.066407c4.714843 0 8.535156-3.820313 8.535156-8.53125 0-4.714844-3.820313-8.535157-8.535156-8.535157zm0 0"/><path d="m51.199219 460.800781h17.066406c4.714844 0 8.535156-3.820312 8.535156-8.535156 0-4.710937-3.820312-8.53125-8.535156-8.53125h-17.066406c-4.710938 0-8.53125 3.820313-8.53125 8.53125 0 4.714844 3.820312 8.535156 8.53125 8.535156zm0 0"/><path d="m93.867188 460.800781h17.066406c4.710937 0 8.53125-3.820312 8.53125-8.535156 0-4.710937-3.820313-8.53125-8.53125-8.53125h-17.066406c-4.710938 0-8.535157 3.820313-8.535157 8.53125 0 4.714844 3.820313 8.535156 8.535157 8.535156zm0 0"/><path d="m153.601562 460.800781c4.710938 0 8.53125-3.820312 8.53125-8.535156 0-4.710937-3.820312-8.53125-8.53125-8.53125h-17.066406c-4.714844 0-8.535156 3.820313-8.535156 8.53125 0 4.714844 3.820312 8.535156 8.535156 8.535156zm0 0"/><path d="m179.199219 460.800781h17.066406c4.714844 0 8.535156-3.820312 8.535156-8.535156 0-4.710937-3.820312-8.53125-8.535156-8.53125h-17.066406c-4.710938 0-8.53125 3.820313-8.53125 8.53125 0 4.714844 3.820312 8.535156 8.53125 8.535156zm0 0"/><path d="m221.867188 460.800781h17.066406c4.710937 0 8.53125-3.820312 8.53125-8.535156 0-4.710937-3.820313-8.53125-8.53125-8.53125h-17.066406c-4.714844 0-8.535157 3.820313-8.535157 8.53125 0 4.714844 3.820313 8.535156 8.535157 8.535156zm0 0"/><path d="m264.53125 460.800781h17.070312c4.710938 0 8.53125-3.820312 8.53125-8.535156 0-4.710937-3.820312-8.53125-8.53125-8.53125h-17.070312c-4.710938 0-8.53125 3.820313-8.53125 8.53125 0 4.714844 3.820312 8.535156 8.53125 8.535156zm0 0"/><path d="m307.199219 460.800781h17.066406c4.714844 0 8.535156-3.820312 8.535156-8.535156 0-4.710937-3.820312-8.53125-8.535156-8.53125h-17.066406c-4.710938 0-8.53125 3.820313-8.53125 8.53125 0 4.714844 3.820312 8.535156 8.53125 8.535156zm0 0"/><path d="m51.199219 435.199219h17.066406c4.714844 0 8.535156-3.820313 8.535156-8.53125 0-4.714844-3.820312-8.535157-8.535156-8.535157h-17.066406c-4.710938 0-8.53125 3.820313-8.53125 8.535157 0 4.710937 3.820312 8.53125 8.53125 8.53125zm0 0"/><path d="m93.867188 435.199219h17.066406c4.710937 0 8.53125-3.820313 8.53125-8.53125 0-4.714844-3.820313-8.535157-8.53125-8.535157h-17.066406c-4.710938 0-8.535157 3.820313-8.535157 8.535157 0 4.710937 3.820313 8.53125 8.535157 8.53125zm0 0"/><path d="m136.535156 435.199219h17.066406c4.710938 0 8.53125-3.820313 8.53125-8.53125 0-4.714844-3.820312-8.535157-8.53125-8.535157h-17.066406c-4.714844 0-8.535156 3.820313-8.535156 8.535157 0 4.710937 3.820312 8.53125 8.535156 8.53125zm0 0"/><path d="m179.199219 435.199219h17.066406c4.714844 0 8.535156-3.820313 8.535156-8.53125 0-4.714844-3.820312-8.535157-8.535156-8.535157h-17.066406c-4.710938 0-8.53125 3.820313-8.53125 8.535157 0 4.710937 3.820312 8.53125 8.53125 8.53125zm0 0"/><path d="m221.867188 435.199219h17.066406c4.710937 0 8.53125-3.820313 8.53125-8.53125 0-4.714844-3.820313-8.535157-8.53125-8.535157h-17.066406c-4.714844 0-8.535157 3.820313-8.535157 8.535157 0 4.710937 3.820313 8.53125 8.535157 8.53125zm0 0"/><path d="m264.53125 435.199219h17.070312c4.710938 0 8.53125-3.820313 8.53125-8.53125 0-4.714844-3.820312-8.535157-8.53125-8.535157h-17.070312c-4.710938 0-8.53125 3.820313-8.53125 8.535157 0 4.710937 3.820312 8.53125 8.53125 8.53125zm0 0"/><path d="m307.199219 435.199219h17.066406c4.714844 0 8.535156-3.820313 8.535156-8.53125 0-4.714844-3.820312-8.535157-8.535156-8.535157h-17.066406c-4.710938 0-8.53125 3.820313-8.53125 8.535157 0 4.710937 3.820312 8.53125 8.53125 8.53125zm0 0"/><path d="m230.398438 213.332031h17.066406c4.714844 0 8.535156-3.820312 8.535156-8.53125 0-4.714843-3.820312-8.535156-8.535156-8.535156h-17.066406c-4.710938 0-8.53125 3.820313-8.53125 8.535156 0 4.710938 3.820312 8.53125 8.53125 8.53125zm0 0"/><path d="m332.800781 256h-39.398437l-2.132813-17.066406h109.796875c14.136719 0 25.597656-11.460938 25.597656-25.601563v-187.730469c.003907-14.140624-11.460937-25.601562-25.597656-25.601562h-324.265625c-14.140625 0-25.601562 11.460938-25.601562 25.601562v187.730469c0 14.140625 11.460937 25.601563 25.601562 25.601563h109.796875l-6.398437 51.199218h-18.066407c-4.710937 0-8.53125 3.820313-8.53125 8.53125 0 4.714844 3.820313 8.535157 8.53125 8.535157h153.601563c4.710937 0 8.53125-3.820313 8.53125-8.535157 0-4.710937-3.820313-8.53125-8.53125-8.53125h-18.066406l-2.132813-17.066406h37.265625c14.136719 0 25.597657 11.460938 25.597657 25.597656v17.070313c0 14.136719-11.460938 25.597656-25.597657 25.597656h-170.667969c-23.550781.027344-42.636718 19.113281-42.667968 42.667969v8.53125h-93.863282c-14.140624 0-25.601562 11.460938-25.601562 25.601562v68.265626c0 14.136718 11.460938 25.597656 25.601562 25.597656h324.265626c14.136718 0 25.597656-11.460938 25.597656-25.597656v-68.265626c0-14.136718-11.460938-25.597656-25.597656-25.597656h-213.332032v-8.535156c0-14.136719 11.460938-25.597656 25.597656-25.597656h170.667969c23.550781-.03125 42.636719-19.117188 42.664063-42.667969v-17.066406c-.027344-23.554688-19.113282-42.640625-42.664063-42.667969zm-256-238.933594h324.265625c4.710938 0 8.53125 3.820313 8.53125 8.535156v145.066407h-341.332031v-145.066407c0-4.714843 3.820313-8.535156 8.535156-8.535156zm-8.535156 196.265625v-25.597656h341.332031v25.597656c0 4.714844-3.820312 8.535157-8.53125 8.535157h-324.265625c-4.714843 0-8.535156-3.820313-8.535156-8.535157zm129.136719 76.800781 6.398437-51.199218h70.265625l6.398438 51.199218zm160.996094 128v68.265626c0 4.714843-3.820313 8.535156-8.53125 8.535156h-324.265626c-4.714843 0-8.535156-3.820313-8.535156-8.535156v-68.265626c0-4.710937 3.820313-8.53125 8.535156-8.53125h324.265626c4.710937-.003906 8.53125 3.820313 8.53125 8.53125zm0 0"/><path d="m435.199219 392.535156c-23.550781.027344-42.636719 19.113282-42.664063 42.664063v34.132812c0 23.566407 19.101563 42.667969 42.664063 42.667969 23.566406 0 42.667969-19.101562 42.667969-42.667969v-34.132812c-.027344-23.550781-19.117188-42.636719-42.667969-42.664063zm25.601562 76.796875c0 14.140625-11.460937 25.601563-25.601562 25.601563-14.136719 0-25.597657-11.460938-25.597657-25.601563v-34.132812c0-14.136719 11.460938-25.601563 25.597657-25.601563 14.140625 0 25.601562 11.464844 25.601562 25.601563zm0 0"/><path d="m435.199219 418.132812c-4.710938 0-8.53125 3.820313-8.53125 8.535157v8.53125c0 4.710937 3.820312 8.53125 8.53125 8.53125 4.714843 0 8.535156-3.820313 8.535156-8.53125v-8.53125c0-4.714844-3.820313-8.535157-8.535156-8.535157zm0 0"/></g></svg>